<mxfile host="app.diagrams.net" modified="2024-07-06T16:52:09.336Z" agent="Mozilla/5.0 (Windows NT 10.0; Win64; x64) AppleWebKit/537.36 (KHTML, like Gecko) Chrome/126.0.0.0 Safari/537.36" etag="Tt73DrPyMHU4QDA84AwT" version="24.6.4" type="device">
  <diagram name="Page-1" id="yGSe_DTXiE3oZItQl0cC">
    <mxGraphModel dx="1050" dy="565" grid="1" gridSize="10" guides="1" tooltips="1" connect="1" arrows="1" fold="1" page="1" pageScale="1" pageWidth="827" pageHeight="1169" math="0" shadow="0">
      <root>
        <mxCell id="0" />
        <mxCell id="1" parent="0" />
        <mxCell id="rcxjUj8TpD0m8F0G5roD-2" value="" style="shape=image;verticalLabelPosition=bottom;labelBackgroundColor=default;verticalAlign=top;aspect=fixed;imageAspect=0;image=data:image/png,iVBORw0KGgoAAAANSUhEUgAAAMwAAAHkCAYAAAByqsAdAAAAAXNSR0IArs4c6QAAAARnQU1BAACxjwv8YQUAAAAJcEhZcwAADsMAAA7DAcdvqGQAAG5BSURBVHhe7Z0HuFXF1YbVRP0TkxiNscUaExNLjN0kVkTs3dh7bygWROyxNxTBil2x94IRG4ogCIJiQ1GxIDYEUVCk3vXPO/d8J8PxttMv96zveYZ9zi6z97msb68ya9bMZQ6Ho8VwwjgcecAJ43DkASeMw5EHnDAORx5wwjgcecAJ43DkASeMw5EHnDAORx5wwjgcecAJ43DkASdMkairq2u0OdoenDBFoiGiqDnaHpwwRaIhoqg52h6cMEWiIaKoOdoenDBFoiGiNNcccy6cMEWiOUI0dJzmmDPhhHE48oATJgfTp0+PDcycOdNmzZoVP4MZM2bM9h1wDudPnTrVvv/+e/vyyy9txIgR9txzz9mwYcPss88+s6+//tomT54cz0u1iz6z1TEafeoz99NnmqO6cMIEIIjTpk2LW0gh4UVw+U5LBZbtt99+ax9++KH16dPH7r//fnv44Yftvvvus+uuu846d+5su+++ux1zzDHWs2dPu+iii+zss8+2yy67zG688UYbMGCAffXVV5Fg6o/7A+7NfSGg7ssxPZ+junDCZIBAiii81adMmZIVXgkqAjxmzBh76qmnrHv37nbWWWfZVVddZXfeeac9+eSTUaO8+eabNnz4cBs0aJANGTLEXnvtNXv00Uft8ssvjwRq3769rbXWWrbTTjvZKaecYnfddZd9+umnsX/uA1G4p5oITBOBHNWDEyYDBBGz6ccff/zJGx688847UTucc845dumll9oTTzxh7733nn3zzTfZaxqDiDBhwgR766237N5777XTTz/dtt12W1t//fWtS5cu9sorr8TjgPtCWkhM31zPd/rINQkdlYUTJgO9xUFKAIQYAT/qqKPstNNOi1rku+++m40gEmiuR8gReI6rHx1PwXfMOrQRROzatatde+219tFHH8Xjeh6ubeh6R3XghMkgNX0AQvr888/bQQcdZHvssUf0VSS0EmQRQwLNZ7Z85/OkSZOy/bFfZp/64Xrh3XfftTPPPNOOP/74aNZxPeB8feZ8+nZUD06YDBBENALCzJa3/Q477GAXXnihffLJJ/EckQHBxzxKtUkqyJwnIdc1fOdcHaOJPClx8If+/e9/22OPPRb75zhb3csJU13UHGEkoBLiVLABPgnm0X777RdDwxJQtpzDlusl5On+FHzXMX3XZ5B7vsA5d999t2266abRVAOQU/5LY9c5KoOaIQyCBjm05Y2dbsHYsWNt1113taOPPjqGjIVKCin3ovXv3z+GpglZ83wQVBrQUT3UJGFoemtLU0AQ/JVOnTpFpx5wXGSqJHRPQtX4T4SoeWbXMNVHTZpk2oosRKb22msvO+GEE+JgIvs5ThPJKgk0Cc/Bfc8///xoIn7++eeZo45qouYIoze1olc//PCD/ec//4khY428y8mGLCJYJcE9GTjlWUePHm277LJLDAI4qo+aIgwCSIMsIszLL78cTTHCuiD1bWjSNpUCz8c90wahO3bsaOPGjcuc5agWaoowMrHwTSSYPXr0sOuvvz5LJvZxjkwxrmFbKXAvEZrGd7ID9t57b3vooYdmI6+eq5LPV+uoKcJABoQQMoC33347+i2Mtrcm8Jz4MSICmu6MM86ImlBaRoSCQJzvqAxqUsMIDz74oJ100kkx/b41AaJIy0EcQMRs6623jpnOQOTnXD67lqkMas7pl4mFU33eeedZt27dWqWwQQIIQ1CCZ/74449t3333tSuuuCJLerb6PWwd5UfNapj333/fjjzyyOgXgNZEGp5TZhbPi88Fcc4991w77LDDYjaCjkm76HxHeVFThJHdDxhJP+SQQ2LaPgInIlUbPItMLbbSNODmm2+2du3axTk2QFE84BqmMqg5p1+CRfYxE7rIKGZfaxG4lLyYjWgW9gG04TrrrBP9GSBCOSqHmvNhBAYCSaVHKFMgnBJQkH4uBLl95fan72whrc6RuYXTjyYB/fr1s0022SROhwa6Rtc5yo+aIUwqkAANQ54WqfsSUI7jL/Dm1ne2hQoj16o/hB/BV9/SdroP3yEvn4HuyVafmfK8zTbbxGnNQOfSb6HP6MgPNaVhJKiAmZNkJkOcXHAeb3aEW0KZL7gOQVZfpN3I56BfyMFWg6h85zPnNwYmlpHB3KtXr/hdZKJPJ0xlUHM+DILJdvz48XEuPfPzAcmNaJsvvvgi69cAtoUIowgDCUSKFJCIRh0BnkfnNUWYDz74II74k5BJf9xDz+moDGrKJEMwaTKRIMuGG24Y39iUQ7rhhhvi/H2c62eeeSYmPnJeIeB+3AdSqA/IiO9EwQtpGwBR+A7YNkZQsqr33HPPmCgKUVKN6agMaoowCKaEGDCzkbJHmGUjR46Mb3BKHvGZdBkGCzm/UCDUuhfkYxwFM5DZnJiEAG3Gs6FpUhI1BMaO0DAXX3xxvIbGPRojmKP0qCnC8EamKTJGeBYNQ8ZyLjgfshDWbcpMagy6HhLgeyDkEJRESmqUbb/99ta3b994HiThvOZMrDfeeCP6MLfcckv8LrJwH7aO8qOmfBhBQvn000/bSiutFHPK8F9IxsTsSbVKUwLcFLgOoqFZ7rjjjliBBj+JUXpICIEosjFq1KhI4DQooHvmkmDgwIFx4DIlDHDCVA4158MgxHxG2K6++mrbcsstoyBS3pWKlORqvfDCC/bf//43ZgZzngQzX0AAmXqQhBH6m266yV5//fVogqFpeAbAcykQoCCBnlVkYPxllVVWsd69e8fvgGfTeY7yo6YIw5sYAeMzJV8PP/zwSBCIQenWpZZayi655JI4znHllVfGc4ohDATFR4EsgFoBp556amzsR/NQalZA8NNIGc/LZz0z83b+8Y9/xKABoH/2Q7JCn9GRH2rKJEO4aIBRc+p/4V8g0Pfcc0+s0PLSSy9FZx8NoBB0MUDo6QeBfvzxx23zzTePRMHpP/HEE+P9eSaO8xyp4IssgOdh1uUWW2wRVwgAMh3RZPpdjvKi5kwyBJA3Mn7AcccdlxVKEYPz9GZXVK1QYaQProcImFOYf2gwSsRSc+yaa66J50jg2fJd99MzAyJkHTp0iLWdRRSeW037HOVFzREGIHy8rR944IH4XQIq4UNw1Yoxd0Q2xl+YSnDwwQfH4AImIEtfyLSCmHo2Pqf3ExEITGy88cY2dOjQ+B1iiWycr+sd5UVNmWQIFkL2yCOPxPAsix3xXYItciC0ilqlb/x8wDX0QX8UCCQzervttot+CNE4Bk3ZAjQQ9+QaPSONzzrO9GRMSM0OlfajOVkqh5rSMDTe9mgXZlsiaBJUCSn79Flv70LBtTQ0GtEw5uUTUGCglKnRhJm5t3wc7sl3noF782zgxRdftL/85S9x4FPkYEvjfM5l6yg/as7pR7vgeL/66qtZYUNQiyFGU6B/NASmGEQh45iySaxIhkbjGaQleAaRRZ/RUmQHrLbaanHg0lFd1BRhSLhknRdqJ/NWlyaRlik16JeG6Yezz/gJWQWHHnpoHMgEIgrkEXG5hu+AqN2f/vSnuFoZRHJUFzVFGEwj5sDI2UdYhXIQRhoCvwONxrqWJF8y9kOkDMjsSrUKW8iD70Pu2MILLxzTahzVR00RhrUp//a3v0UhJKzMWAyj73L+SwkIiOAT1SIDeuLEibGx3gzZ0Bznngo4cC5bzDf2ATKo5513XltsscViNgIoB7EdLUdNEQZi4DuQ+EhO1nLLLWe/+c1vojNeasJAABokISJGwQ0a4WWVpeU4SCNd2pKew3wdzt95551jOg1wwlQXNUWYFKSpMHC40EILRSe8HEC4IQNLaaBV0GosJAsgqEgqDSMfhegZyZmDBw+OPg8RNXf4WwdqijAIJc6+QFoKRSUwmQCCixBLgIt9m8vkSoEGYT/bXCeefZxPGBkNAyAaBfxUWslRXdQUYRBIkh5xxAFlV//1r39lyxYBmUQSXhGoEEA6rhdx1JeIyXERky33JP2fAU0FA4isMcgqk8xRXdQMYSSkNEiDQBJmZvScyBkRKUK5CjcXSxgRgIYjz1ZkEUQU7sG9OA/CEEHTeSwSe+CBB8ZpAqCQZ3GUDjWlYRA2BBdi0BBW0uvxY04//fSYQcwEMoSW84A0QL4QESAmphf9EV6GFPTHMc5R/zRIIzNN9yQz4IgjjogTzUAhz+IoHWpKw0hj0DRQSIoMfgzhXzQPwQCOIeC0QgkDuF4+E9Ey/BC0Gv3pOWi50LMCJpztv//+2ciaE6a6qDkfRkIsQSY/a80117RHH300+glpYT+RqhDQB2RD8GloL0jJfUVCtvTPZzW+6zkBGQKk8niUrHWg5kwypZ1I2zDnHh9h2WWXjeHbESNGRLOIY7RCNYzIACh8QQknZSeLDDqHxj34ribwTNQdaKhQh6PyqCnCpASAODJ7SIik3BKzLiEThJFZJqEWadjqs4SbvtSvjgH2kY7DlOTu3btHsyzVHpyr61KoX8Dg5RJLLBGzEkDuuY7KoqZ8GBGGpjc7IEKGlmGAMSVLej4Ngolo9EfjPM7XcQk0ph05Y4zuX3TRRXHAEocfP4lzmwL3FZkvuOCC2XLJdN+GmqP8qCkNAxBGhD4VMsK4rNOPDyOTLdUaCC+fJcgiEp85l3P4DtkYpScHjPEdJozhG02YMCFLLIW0mwJ96RxIRxSPHLRUMzXUHOVHzRFGgp0KGUUlIIzWjxQZIIY0DeeyX59TsI+JaRS3oKrLL3/5y1iFhvJKAs5+2mdjoO/0HNJ3Fl100TgtAZMO6Nlzm6P8qDmnHyCQCD8NwSTcu+2220Z/Q8fROhozobEPgc8VTFYwu/XWW2MFTTKL0QbHHnts1CpA2oz7iKj0ldtPCo7pONpq/vnnt0033TSajkDHc5uj/KgpHwahhSS5wkU95fXXXz/6CxwHmE4IuLRCCsZScMIRZq6ba665bJ555olahTQbnc+We0Ia+pGGao4wnMe9ASYZhFlyySXjMoNABMltjvKjpgiDIEpo+S5CsI8Rf8K3rEoGgXKBeYUmoR4AA50LLrhgJApt+eWXj1Ew5aiJKPQL8F3k64CmhDt9TkCGM1MRMMsosUS/gPNym6P8qDkfBki4IEsqgM8991zUEhtttFHUHoyfMJWYKc2UaP3tb39rK664YvwOsYherbHGGjEsLUBChJ3+2Oo74F605oSb55KGoQ4ABQb32WefWGZJI/4g9/kd5UdNEqYpEADA0WZpvJVXXjlOMkPzILBEvORHMGrPflJrBHweNAlCjJPPQCWT1hBsaR1aS0wyzgGEo/GHyCnjfiRjAo7n9usoP5wwGSDACLy0AcLOMt+k1zM+w7EUjLwz3RlygVR46QtNwJwWlXWlX/XNtjHCsF+EErkAz7PuuuvGounci+M6V/d0lB9OmAyU40VL/Q1BxyTMTPJae+21Y8lXgP8iEwmtQog6rRUgwaaPpkDfuhf9CSSFHnDAAbbVVltli/lxPDX5HOWHEyYDRbIQQISbzzSEEUFnP99FGAqLr7766tlySRyjD6YGEM1SOj7n6xr64JyWkgakWgazjHX68bUAx2icr3Mc5YUTJgMEWaSQAIo8CK+EWJ9ZFxOTTFOH2ce1mGrsQ+NwrYioc9RfU+AciAB4BhogUkdRP8LfKfRcjvLDCZMBQo3QSVglgAg5Deg4WyrB/POf/4wDlwJkoWg45pMIxLn0h9CrT/pQn7kQqdhyHX2IcHzv1q1bNM00PYF9qe/lKC+cMDlAUBE+CTRbNZGFRqWZ9dZbL04PAGgV5q7gnEszpX3kftfnhqBjeo70/CeeeCIue6EiGfTLICtbR/nhhGkBeIunvgfCSblX0mEI+VLOlbAzFTUR7NQMKzWYQk1mNWWYAPfh+UQoR3nhhGkBIEgqmBCCwhmUPyJ8TOTq5JNPjmYS2kVjMeUApGXaMgX+SPjUs7mGqQycMC0AJEFQFRggdYZkzc022yzOd6EMEtExQEZxrklWahCBY2IZ/hJItZ+jvHDCtABoC5pIwBgMqTLkkTEWo5ph0i7lIoyIC5hKgM/EvdjnGqYycMK0ALkCyeg+GcSLL754zPMCvOVFEIWUSw2eQ6YeqwGwBAZbAHEc5YcTJge5WkHfRQCc/N122y1qF0K8AEGWWSSzDb+iHBqGfrkPph+rMKvMLfsc5YcTJgGkoCGYCKAEFDNLAkluGan21ArTJDHOUxOx+Fxq8AyQkb75zFgQwQbCyo7KwAmTQaoREEo0BcKPYMoMYqSdFHvCyWkV/kqCZ+HZAOFsgg7KNnCUH06YAIiSEgahlEaBEBxjH2MfTBZjViXnSnArCciMj8T90Syszuyrk1UOTpgEkEMaA8JACJGChEpSYRgDAZCIc0WySkEajy3P0KNHjzgnpxrkrUU4YRKIMJCAQUh8F8C4B1Vl0mW/OQ+BlSaqFHg2PQP3fuaZZ+zggw/OzrtxlBdOmAwQQoSRJuIAHHvSYEhHYVFXwLnV0DDcC5Kk98WvImqXJoE6ygcnTAYSRsiQZgJfeeWVUSA13sE+CWylCcP98GH0nIDwMo6/5uXoedLnquQztnU4YTJAY2CC4VDLH6AAxQ477BDNHoQut1Ua0i7ScDwDqf1Uk7ntttvid84BInO6z1E8nDAZQBKEkLksAI1CuVfKJ7EfiCQIYzWEUMIv0gA0DoGIyy+/PB7TM6aftXUUDydMBggYwgcwc/bbb7+YjTxu3Li4DyB4CCsEqiZh0i0Nc6xr164/IXZKGkdp4ITJACJgjiFkaBWiYhqchEi80Tmmt3s1BJF78gyArT5T4pZImYISerZqPWdbhhMmAwkfmcjMb9GMRt7aDWmUVHgrBe4pAqSEoToNi9sqMKHzeG6d7ygNnDAJWKqCiWGs54Iwok1oQip8Ol5pgdR9gfwYnnv77bePlWyACCOtKGI5ikdNEQbBkTA1JEhnn3121C4UGwcyxXQ+gqrr1E850FS/PI98FT0/1Th33nnnWPsZsJ/zRHid5ygeNUMYhBBBSwVJYxqAavwkVhJKFvBpFAioJJoS8JQwIha+CwOraEbAb5MZ6WQpLWrOJEOQGG9B2KRBqCS59dZbx0owDFpyTMRq6m1fKfAMeg62kEDPCBiLIQmT9fwBzw3Scx2lQU1pGL15IQxbDVAymk8YGecZIIAQp9pvZ2kIPUdKgHQ/v+O4446LtQWA9kMoznXClA41RRg0CqRJhY3171nigugYUOUXjkMqva0riZQQDQk7+2RyAQhDUQwcf6Dr04lvjtKg5px+3roSIiq9YMqcccYZcT8CBkHU2Ke3dKXAvbgn99d92YoE+g5J9GzsZ/Yl62sqYMF+9eGkKR1qijAIT+roE1Vi/EKFw1PfBoeftzjfK4mGBJzvPMvkyZPj2pspodgPbr/9dlt11VXtzTffjN85DriW8x2lQc0RRgLGKP6ee+5p99xzT/yOgNEQMLYSSpCShs/sz90nIWfL9/R4IUj7oE9ITD00CKFsao6LDPyONddcM0sYNJD60DM5ikfNmWQIO5qExVZPOumkKEhNaZJU4HQ9wsg23S/BpS+O5ZIqX6h/QD805r7ga/H8gHMElsJg+Q1pS55D1ztKh5rTMID1Vaj6MmzYsPidt3dzQPgkhBJm3vQQhX5FGB3T/kLBtbkC/8knn8RES0wzkJ7z0EMP2V/+8hcbPHhw/K77N9SPo3DUDGEkvDj6LOh61llnRUGSgOt4Y+C8VBOxZVpwurQFW7VyEGbMmDHWt2/fOG6kvqVlmLPDepwU6ABOmPKgpjQMYCR/iy22yJYmQrCaEygJHcIpQYUgmD+89dmX9sP39NxCkftc+DD//e9/45QD+qbpHAiz7LLLxuUwQErg5n6fo+WoKcIQYaLq/UEHHZRd5LU5wkjg1ASuYy2YESNGZPtgC0oppBJ6ADlJsFTh85SU+DB//vOf49qagGfRtaV6FkeNEYbCd+SLUb0SNEcWIIETIdLzccLpEx+I81LiSJALQe61uif3IxqmsRbt5/7MuFxttdVs5MiRcZ/8LVDMszhmR5sjDEKSCrmAUJErtummm2YjSQq96pqGkB6HCOlbHcF9+umno+bS/Wipr1MIdD/1p75Yi+b666/PpvCIoPw21r1ca621op8D2KdrS2EeOurRZgkjIWELEG4WVD366KOzCZYcUytEoAjv4hOxKpjum967UNAXfUA8SCHgd1122WXRlwGQQuRkagLjMCKMtJz6cpQGbdIkk+AChAogbFSA0fIUCJK2EvZ8gYbCCSc8TR+po10M9EwIfUqYp556Kla51Dr9uhfP0blz57hWDWTS72Gr3+8oDdocYSSsqdCxpbIK2bwqeKe3LluOFwL6xiTDEaefUo2uqw/61HPSH/4L4XBMwBSEtglkbLDBBtm6BLo/hCn0ORw/RZsjjN7yCDMCDDCdWBaCyioqo8RxhJFtoQLFdTj91ASTgKrRdyH9cg19AQk+oD9Iz28QYUQmipLvsssutvnmm8fvXMPvAnoeR2nQ5giTvpEhD6BsUqdOnWJ0jP2co+MSrEKBxiJCpXJM6pttoYTRb0iFHb/rwgsvjPNeUtIDfh/rbbJ+P+B6vRDSPhzFo02aZAgsYMt3nHI0DCkxgNQS9kuwdF4hYD49OWnDhw+P39Fm9KsoVaHI7UNTESC+UmNEGBx9HH4CAoD9/B6epZjf5vgp2iRhRAIJDk756aefbkOHDo3nIEjsT1uhQLMgyFoGAyGnyZ8pBFzHs6f+B9G4NdZYI04UYz/gdwACGiuttNJso/z8fmnQYn6fY3a0acLwlgbPPvtsjCIpHYZz1IoFQknm8z777BPf/CIq22Kg3yGwEO1CCy1kp556avZ3yUcjg5kImX4fhNI5TpjSok0SBiFOhYRQMlqA6cgAYeZ4qQSJFJl27dplVwIrtl9dL00BSLpcZpllIvFFAh1jvf727dtn14jRdZzjhCkt2qyGSYWE2YiYMqSWgFIRhn54m7NlCXCSOhXBQmgLAc+Uagd9ZsLbeuutF5e20MAr9+Ucyitxb5lqXKN+cl8ejuLQZp1+CRpgKjKrhymlpFSE4XqSONmStrLJJptYr1694rFi3uw8n7b6HQxWMp16xx13zEbJOI4fw9weCnnwXU3HeQ5H6dDmCIOQIKi8WSVsN9xwQ1xDRSaLzilUoFNwD2U+d+zYMZpmo0ePjt8LRfps0jL8HrQY/Ss1BkAe8uPwbYA0Ck3kKcXvdNSjzREGgUFIME/4DHr27BlNMmoQg2IIk3sdAk1/5KodddRRttRSS8WInEhUCOhPmoHfoM8333yzrb/++vbKK6/E7zwHUTpMtdyUH66hcY72OYpHmyOMhIS3sgTlkksuibMsRRiOc540EN9pDUF96ZxcQeQzPgWROBzvlVdeOc5LYX5KS/pvCOobsNVn5rqwyBPEAZBp0KBBts0220STMEV6XT73djSNNkuYVEhY7wXCMMgIOJYSim1TQsVxEUWCyPUiBLWNiV5tu+221qFDB/vrX/8aa52R1wX0PE3doyXA1Ntuu+3shBNOiN/pj2RM7qtJZY7yok36MCAVaAYVSSmRb6H9oKWCLMIA3uwaNES7PProozFsTUHzM888M6baM+eG+6j/lt6nKXBPsgrIG+Mz/ePskxIj89NRXrQ5wgAEMxXwO+64Iy6/p4E9EYbzJNSNIfccPjNgyBZy9u/fPwYUtIrxxRdfHAcZdQ/O4Vq1YsEEMmaNEiInJQYT7dprr80cdZQbbY4wEuRUQBmHWWeddeLcFaBjOrcpcJy3N+fzWSRky9gICZ1kLAv4S5AmDf3qfrRi8fDDD0fCQFQ02t///vcsWR3lR5v0YXJJ8MADD0RHXM6yhF9EaEqQ0+P0LdOHqBiCSp4ax7WfGsf4M2QQg1IThjQYMpOZUoCpudFGG/3E4XeUD22OMBJMBFXEQQNgupDNK8FGu6TaIpdkKXL75DNhYwYT6Y+mvC4GLgkvl3qQVKBKDeMu3IPM5cMPPzz6M/yGUt3D0TjaJGEgg5xigK3PgB9+jCqucBxh5hyd1xhyBTH9zueUcJhozH6kJBIotRATkWPF5IUXXtgWX3zx6C8B3d9RXrRZHwYh1meEDLJQGVL2PscY3JQDX4hgc40EVdqKREhSWFgKvBzgmRkYnWuuuWzuueeOAQ1QamI6GkabJAwNMwlhlkCTUcycd8YsmFAGlDipcwsBgkrjngBnnERILQFeDvTo0SMSZoEFFrDHHnss7iv0+R35oc0RRiSRmYTpJb/lxhtvtAUXXDDa/wg556TmVDGQlsIBZ8Sf4hjlwp133mk/+9nPbMkll8xWuhRhHeVFmyNMLgkQJKW9M3DJKl2///3vo+nEoCPHObcYk4ZrdT9G3BmNJ4pVTJ8NQf0xUPrrX/86zrLU2JJeCo7yok06/Uq8hBCkp2i6MPtI859vvvli4e777rsv7kcLFSPckEWEoZ+99947hpfLJcRU6MfhZz0YLaDES8JRfrRJwigChhAhtKkGobYXb2bmkAwcODDuh1gS+HzB9SlhAGkypMg0lLGs5ygGDFgSwEhXHHPCVAZtjjCgKeFnWQgG/hibkbDL/ygE6iM1A0lVIUFSIey072LvBahQQ+FximKoMGGhfTryQ5skTFMgikVGsSrIIOTFChvX0+R4U72FsRhN9OKY7lMKwpDYyQg/82CUUFpon478UHOEwQyDMBAHFCPAgjSLzCLe+kwlTqvUcB+dVyyY10PGMpPJNEAqsjrKi5ojzJAhQ+I4icK+pRBiEUVO/oQJE+KkLtadFBlLSRgCGYcddlhMKP3www/jPidMZVBzhGFAcauttirZgJ+0B1A+GQJNUIESsgQUAKTSeaXQaCeeeKKtssoq2cTLYvt0tAw1Rxhqk/H2J4MZFPtmRlAlrNI0hLXPP//8uICT0vwV6i4ViMKtuOKK2SiZE6YyqDnCvP7667blllvGgUsgIS8ECClve5FGnyEGlWqo56w0/zTjoBiIGNQi+9Of/pSt6az9jvKiJggjgQaEk8kp02QyZQEUCpla6ZZ7XXfddXEAU6FljQeJVIVC1xK6Xn755e2FF16I34vp09Fy1BxhqOC/7rrrxtW8gAS5GIHjevqhDz4DZkbutddes1WqoXFesWYgYBrBCiuskF2Xv5jnd7QcNUMYAd+F6BIzFwECjgAXI3BoFTn8IgMzMQ899NBs2Jf76F4iVb7gGXUt1fzxYUjvAYX26cgPNUUYtszvZ6Rf0SUEuJg3Pn1CGJl28lMYXGSiFz4T4Hix5h+k4F7g5ZdfjvP5r7766vi9GMI7Wo6a0zBMuGKtSyaVAQRcQl4o6F/30Pbjjz+OJhkF/dgn7cJn+TmFQJqECWr4Ykwmc1QONUcY5sTsvPPOJSUMECEEomMscU4JJvXPc4g8hRJG96BONGtaHnnkkVkSOcqPmjPJMGG23377bGFyBLCYN76uo5+UGHyn4uYRRxyRrUrJ8WLuBXQ9hKSIH5E4+U+O8qOmCIMQU2ppzz33zC7iCthfjBA3BiJle+yxx0+mRBd6r1SLQRLWiiGnTCVpHeVHzWkYBizJJBZhihHg5kAkbr/99svO79e9CiUo18j84jNTCKhRQO6aozKoOcLghFOLmJpioFgTqSmMHDkyrn3JUn66BwKPpinFPUmPSTOWHeVHTRGG9BSEjORLaRgRphykYfk+Cu1xT+4DpGVKcT+qxxBapiKOozKoKcJg9xOGZRwmJQxNpk6pQRIm4zGYTTxHMRG5XKLde++9cdYlUxYclUHNmWS33HJLLLSnKJkGFFNBLAXUHz4T4zFMJmOfyFnI/bhOTj8gzQfCKM3HUX7UBGFSUKKIcRhN7eWNX8xbvzGIEMy+PPbYY7PZ0YD7FaLRuEYmJKDOMuvzkxntqAxqjjCPPPJIHPBLi0eUI6xMfzT8JlYjw9/gPkwoK1SjcQ2kEdmoGYDTf8EFF8TvoNS/wzE7alLDsDw4b2cg4Su1oNGvzCeWpWDJwCuvvNIGDx6cvWeh0LNiVlLJnzVpBCdMeVFzhCEdnrcyxTBA6hOUEgguphdbHH7GfpZYYons1OhCBTvVMMy12XrrreNUaMEJU17UHGEYTIQwmkBW7Nu+MSC4qXCzxj4zJFULuVDQr0jBWBLmZaphHOVFzRGGUXfMmHLPI6FfhawR8AsvvDCagqqHVowm0LUs2kTGMgme5fodjtlRM4SRkL311luxzBLzYkAxgtscEGKZfNRaJumT+4NCBJxn5TpdyxQCVlZj6XFHZVBzhKGOFwmRV1xxRfwOEMByEIc+5cf07NnTDjzwwKIWWhIBpbVYSZnVCOhbKMfvcPwPNUeYL774IhbBI9SrfQhhOQSNfhVCJtWfIuUsH8j3Qu6na6Rh0FaYZCoZ5Sg/as6HIRQLYSiEJ8ErVICbA2RBGwA0GppN4z+lAOVuyYtjurKjMqg5whCKZUykY8eOWcKUyyRL+2Xg8ne/+53deuut8XuhgIB67vvvvz/O7SnXepqOn6LmCDNp0qS4qBLTh+WQl8skA+qXJEyW2LvqqquyWqcQpIQhJYbfwXTrcj2/Y3bUFGEQKlJVGHFn6rAEt1waRn2ysNKpp54a0/zRBqq3XAjUJ1sGLOm3oYWbHOVBTTn9EIMUf97MRKyUdFkOsgBpMEou4fA//vjj8bsiZ4VA19HHWWedFZt+h6P8qCnCAEhD5ZhyE4Y+RRicc4r6sfoZ0P5CoGspck7FGKJvjsqh5nwYBBnCME1ZhJFPUEqkhKFKJZE5TfQqhjB6VqYlQ3ocf0flUHMaBlA5hrn26dot5dIygHX1icox0AiKIYz6JJSM1ho0aFD8Xg7SO36KmtMwAAGmnpfWbkGAy0EYgSBD165d4xx/UArhRrN06tTJxo4dG78XE3lztBw1SRjmxEAYVb+ELOUiDIOXZ599tnXr1i1LlGIJw/XXXHNNTOikf+1zlB81SRicb+bZp5X1Sw0RkFSck046yW677bb4nf3FmoBUvSRDWQmkxZh4jvxQU4SRkBK1oiA54V72lUPgRELN6acKJoAsBBsKIamuYeUB+mS6NXBzrHKoKcIgcBCEyWNUjHzvvffi/mLe9g2B/tQnK4QdddRR0UlnH8Kt58gXuoYqMZSJTadZF0JAR/6oGcIgbLL3maa8ww47xFH3dH+pQJ8SYELK5K6pSk0pBBvz7rjjjos1lfX8IpOjvKgpwsj0ev7552233XaLpg0CXA7CSICJZlE8UIvDgmKEm37IhVOlGDQWz+8apjKoSae/X79+seo9tY9BqX0AEYIty2sQzUqXpCiGMBQEJGAhh59npz9f8qIyqCnCSMNQ6oiq+poujLCV8g0tQpAZTUiZEDCOPvuLIQsgeEBtAFaDBurXHf/KoOacfoBmYdBPC8PKES8VRArWhWGiGmaZyKJWCFQUEO2oWs08t0jjKD9q0iSDMFTVZ71LUGr7X8L75ptvxpQYTEBBQt6cgHNcTcDn6tChQ/SJ0Jak9rDFhylHaNzxU9QkYRBkTDJyykBzwttSSMBFQJItWfRIph9AsJsjKMfRemgOmsjA9IC11lorO/6CKcl5LenTURrUFGFEDAYs0TAiTEve+C2ByCLhffrpp2MBP60UICI0Jdz0wTls1R/faUxAo6ySkjg57mSpLGqSMFRu4c3fq1ev+B2h07FiIAEXMPlw+idPnhy/Sxs0BfrgPH1WI8Vmyy23nG1NS+4lDcQ5jvKjJk0y3vgnn3yyXXbZZfF7qYSNfkQYBJmQMhO8FPJtjiwp6CfVHvhBq6yySnT61Y80D/cVyRzlRU0ShmXATzvtNPvPf/6T2VMapIQhlZ9ql6ypiYCnwt8cOE+RLxGH511sscUiCUUYzhFRnDCVQU0SBpOG8qoIYakhUnz++efR51CETFqMrT43BgiREoBqnRRQn3feebMp/dyHfgg1i5CO8qOmCCNh5s2MqUTFFdASIW4Muo6thBgg5J07d7bXX389fgfSFs3dS8dFAgqnL7roojbXXHPZ/vvvH30incMkOGkjR/lRM4RBoCSAfGaRI1W/5HshApf2iUZIMwZYJYAsZc254VwEW8ebA/1yLv2Syv+rX/3K5p57bltmmWWy1Wc4zj1bQkJHaVBTGgbBUqIlQgdhlBRZqMBxHYIroVX/TFJD0FmSQuC89NyGwH4dp5FRzVQE6qhRJWaBBRaIqzKntch0rqP8qDmTTIUvWNiIUXiVWS1G4KRd9BnSkD928cUXZ+sG0D9EEGkaux/7U02E6bjrrrvG9SyZUt2uXTtbccUVs+vMqD9HZVBzTj9CCyAMlWOGDx8evxcjdFwrwgBIwgQvMop1P0gAkVpKTM4bN26ctW/fPhbQ4HpAEcKll146lpwF9Kl7OMqPmiIMQohwsyVthTR51rrXsUKg6xBaCTURMgYZWWocjcMxtjTdvzFwXGYd9dMYqMQfEsgn22ijjaJ5Bprrz1Fa1JxJRgOkl1C+9d57743fiyGMiECIFzC7kglq6bRkSCPi6BkaAudznKkBVLbRgq8KH0Mmki9ZDBYzzVFZ1KSGkUAyFnPddddlj9EQSsA52tcUOI45JpML4F+QeqOaYZwjDUP/6jO3b90TEJRgGrUWkRXhACsxMydGC9umPo+jvKgZwkgQESwJNgX20vUhEUhpCQl3KsSNQddJoDGlmEacRuDSBuiXewD28Vl+EBEwsqmZt68xl/R8QtUcV2oP16lfR3lRcxoGoUbwEEAVk1BypARXn5uD+qMvtvoszSXycV7atE/34prUeUersBTfQw89lD2fc3Wc8yELJhtJmZzDPkf5UXM+DEKMCYOQ4fCzIJFCyxyXYNIkiBLahiBzKD2X8RfMJl3HtqGWEkABA+5PYiihZNbhBxzXcwtMHcD5p+QSUF+O8qKmCINQpeYLREmnKksweduLCAgw24ZAPxzTeYA8tYMOOii77mRKkLQBXasGiN6xMnLv3r3jd55Zz6DrAJE4NEy6grKj/KhJk0zAx2C0/+67747fIQn7JKA0zk8FtSFwXH4RsyshjBZ/5Vhjjf5FTABZmT+z8847xzn7gIFW9c2zSMtwPQvNklumGtGO8qOmCANEBIDwYf5oEJCUfEK1CGgq2E1B50jDUNWFQcs0hyy3iYgiAPsAU6cZqCTZUuBZaLqG83UvzLLtt98+XueoDGrOh6FJQAHpKzjpCCEj62gGaRgEtDmkwg8YN6H4uDQE4G5pA9xDRBABrr32WltvvfWi75I+Z/qZ+yiaxsxRzDL5MY7yo2YIg8AhbGxTwtxyyy1x1JxoE34HYyg6l5YKa2NQv5yLw0+tAPZlMe2z4Ny8YfbDyPA5M78/dIngQxYapuAWW2zR5BwdPbv65jrGe5h3I9LN6UDLv/HGG9m6BSl4kTBdQuH6aqDmTDIJHMINqMBCTtnbb78dZ0hS5I/j8hXY6tzGoOOYYbzxKUUbMXOy2WfB3Bu2htkL4U/df36zV/9l9uXtVjfzB5sZLlPomajaqquumi0w3hxEUjIVtttuu+wg6ZwOgh6//vWvbbnllsuG+wF/43//+9+20EILxQLv1UJNEQYB0xudz4D/IJxsCpRjSmGSpYTBbNIbvTHIRCKlf88997Q33xoVbva92ahD64nSL7TnM43P/X9uM98/MZBlShCEuigY+CL77rtv9r6NAcGh6ZmYqMaYjbKX53TwAqGUFHN/eIkIvIzmn39+++c//zkbkSqN8L9XOxBhRBbw8ccfx/kme+yxR3TWqVbJcWkNPqfn5yIVXpYA79LlZPtm4iSzr3rXkwWSsE1bIE3dCz+3GV/cH32a22/vbYssskh04psDhEpD45gnEF7rz7QqTAlm1Yz6ZQrzAdE/ZpeykK7AQDAk4m9cTYT/vdqDCMGWghgMEv7sZz+LpBk/fnzmrPrzmgLHZVJBNBz2XjfcwpFgev2zYbKoPRfaOzvYuG+mWrsOO9s/N9jCvp44bbbAQEOAmjMCl2UkTvxumh1w8FF24SU9MntaET67xmzoSmaju9T7cJioLQDJq2gTquSophvRQ14qRARJHSLggdZhq7JTlUD4X6sdSGuw5U0t8wxTjDca+VmQQIRqiTnGOQC7+m9/+5s9+RT+yxSzlxapN78aIguNY68sZ1+9dZ112vfPdt0F29nMLx+16V89ZnUT+pp980xozwZG9Ast2Ozfvmh13w4IbaDZd4Nt+viBNuvbITZl3EC74NRdrft5B2QCC2/VBxd+eCc8RjANp7wf7JzRoX0YbMePQxsTWvB3CERM+yKorK9C+zq0CYGJ39RrhJlBQ84MQjgz/I5Z4YVQF35j3YzQwt+v6XfI7Pj8hvqXBi+HAQuYvbFN0Lx3h2f5qUOfgr850yN+8YtfxCRUope///3vI2nAPffcE/+/1JRAWwmEX1I7gAQ0SMJ/ivwFTICf//znce1+jolQND4DzpfGYR+fUzIxlkPK/ZdfBuGbFQRu0JJNE4Y2aHEbdtfadl3nn9mYZ4MwfXis1b17uNl7R4Z2VE472upCi9tRR9uMd44we79j3De49zr2XK9Vw/djbdZ7x4R9x8TPde8dG7adzD44Lqcdn7QTknZifRtN65y0k5IWtEW2nfy/9mHXpJ0S2hlmr3cIv3Pu//lvEOfZ0AYvH+4TnuOHtzN/vZ9CpCBqSGkpKuZovIzACC85IpIMPCurohIIT19bQNjRCgg85AAkYRKZIRFTGkNaBkAMPuNs4jPwnekBcj4ZaeftRwkkMGP6FKsbuX/jhEF4Xpzbpr9zrB3Z8QRbepkVgqlRLzzTp0+tf5vPCs/B2z2+6QMBefNP/ya87MeFF//n4dBnYTvGZk35xB65p6cdd8SONnXi21b3wyir+z5olyCMsya9HtoIq5v0qtmk4aG9EloQru8GBY0VNFXQWlF7TXwuNDTaU2YTnjQb/0Roj4f2iNnXD5mNeyC0e+u1w1d3mn0Z/LMvbzP7IpifX9xUr0k+D295TDCigmODefhpd7O3dqz/rfwd9LcYvGzQNNsFL/6CoP3ql0xsCJhaRMrQ2kzJpiYb/ma1EX5B7UAkgCh8pgGWo+A/5JJLLonfpU1EFLY0bGV8FjQPZMH55jsFAZkZqdDu5O+DqfdtENCXl65/qyI0KVnYN2JNG/Pei/avDdrbbrvvYdODYwI/2TaFGUGpTZ0Wnj181nb4a2/ZDjvuZu99EMytHNDb9PBPPpZUyfDFrcEU+43ZkD8FzRi05vg+9YGAFvgy/L2puiOz68ADD8wcqS7C/1xtQaRhKw3DRKyllloqW5w81UCcC0FwNEUg9svZJ42FUCfjN4BzZyD8fBn/WJDmteuJ8kxomCMv/Mzs1XWD4Ay1514YYgsvvIidf/758Vr65R5NQfcHbHlONBzhbIgP6EPHaM31WTbgP00OL47p48IfPv9nIGq45pprxjDzs88Gf64VoKYIg/CAVGuAQYMG2R//+MdsEqb2QxydSxKkiCOBZb4K/5lyOjkXrcN1M2cGUrITJ3vMxWbvBKd81GHBZLky3GBi0CRm5513foz8PProo/H69JkaQir8PAPPw/1Iw8GeTzUkx/R7HaVDTREGgVaT0AOWH19jjTWyb+j0zZyen45/sNb/aqutlk1L0Tkcx3RrSvAB6flMQV5nnXXi4CPgmvS5cpHeA1LSeCZC4yyrQaFyQc/JNfrsKB41SRgEU2YXwMGk3hdVXoAEE3COzgcIKFOQWaeFIho4/5zDG53z0EQQJiVXQ2CsgXEb0lpUlK85otGfCCBy8ZlnYF4PkSOgc9imv9NRPGqKMADhkcAhUIDES0b7NZFMxxFIzpEQEyEjs3ndddeNW97sQIJLQ0A5n8b3xsDkNQjDfBYB4uiZGgP9ytzScxGAgLzUEQB6bs5prj9Hfqg5wkiQUoEjC5bR/rSoH03CCXDyEUg0C2MEEsSmSNEUWAWNvqi+KTRHMqDnAjoXzcR4hNJG0j7S8x3Fo+YII6SEYSSZOmJayltE4RyZZozVsOSEzDaOcY6Iky/IjmYqckN+R1PIPYfvaCb6wfEX2E/jt+g3OIpHTRNGwk5Ydscdd8zWAAP4IvghAOEmtZyMAK5j/9SgcRDG5kW8YTDng3C0IlsS8KYImB5nq888K4OmDLwKkCQ1FR2lQU36MNpKw0AYIlZKkUdzKIyMKcbbm+r5mG6QBT+FFo01HHbGbzp0MFttNbPVV7fgEDFAQ1w69tcQIOGmm26arWwp4W9KuDlHJEgJg4ahFkCqYfhtOj4nAd+QpEtp+9aGmvZhJFBkKEvDsC+NVjFGg2Dfeeed8bsEelo4bxpLWYTrbN55w18y/CnTNv/8ZgccQGXyeH4uiJKRHcAUaaBnaY4wei4+6xqCEZSLOv744+P3FOnvnBPABDxG9pmf1BpRU4RB2Bp6QxPt2mqrraJ/wjGN4nMuZg7rsbDOC8fimzts64hoBSGtyyVKbgtv/tBR7C/Fp2PH2n77759dZ1NEaMp44lh6nOcDRPkY6WfGKIjPGH5b+nvLBjRsCQlJCgyEacncoGog/I/WDiRIuWB5CpInKR3LcUXGSMfAVNOUWAkfR2eQqrHYYj8lSG5bbjmzTMmlFB8FwuwQ/KLju3SJ3xFpnqw50eYcaMJ5Mvg+C6bidkFb3f/II/E7x6HfdAge95QRr71Wr0kvuogBrczOwiHCtNbCHuF/tHaQvmnTz5hgzL+4/vrro48CaTjOYCCV8lXFhfEOtA9COCuQ6yfkaKyFvu2YYyx0aMbgYuhzfMeOduPyy1vfzTYz69nT6kJ/daTY3HILC/ybsarAQw+ZsTxf375mLMuByRhs++mks7/xhs2gvNKHH9pXw4bZnu3aWT9Se4I/NiNonFnjxtnM0GYFc3PmhAlW9+23ZpMmMWjDD67XDMFPCz+43tfiJYHGQtMlf5tmMXCg2c9/Xv87V1oJibfwhiEOnzkhP4gw5OYxfXz14BPS1l57bevTp0/mrOoh/MragUjCFm2j75CAOfW9evXK7qOQBaPwDGZqH4RhwHF8IM+sa66ZnRRNNdL+ESz+w9ECwfT76Pzz7ew//tEGBXPPbrjBZnbvbnXdulkdb2oGIM8804xFayEY0a9g/tlhh1ldeJvP2msvs913t+AEWVCBNjWQZdjCC9uEdde18NBWF/ZZ0F62xx5m++xjdQyOHnKIGWvKQFz669zZ7JRTzAhrYzaSAIo/RYHzHj3Mrr7awh/E7KabiKlbcOLqSUxYndy3J56IBA42pdk888z+e3/5S7O//72+P6q/ZP5+LYEIwxyXgeFvxpqetBVWWCHm7lUb4dfVDiT4MrtknhHx2j0IoMquEjVjIBPtAkl0HrWYKQI+Lpxfh0n229/OLigNtSWXpEJfvD7FCIr2bb659b7rrvh9Zni2Bk0ynlktPEcdfknQCjPRCpiI4Xe8OnSotd9oI3uLKF8wL2dSoPzTT21WENa6UaOsjvuzKBOaCSFHW6G10F4Q4J57KCxQT45rr40azwJ5I9EhU/g7GKYjQQWIe+ih9WZYIKOtvHLDv/sPfzALvy9qzIyv1RK4D9OKkBIGf0REQMNss8022fR+UvaJjA0Lpg7gOipiEhhgGvMM+sGcQXByBSW3de1ab/bk4O2RI233oAHuyETfeBJI0xJw7ozMs3PFXeHN375DB5uQichFkzGzbVmPRYBCFfzOBRc023BDsxNOsGDbmmWyJvIFf1/3YVoJRBiQfsaHYRBRhGEqLAOBipYp9YQVjC/CZArXxncm5WADiWYjSNqClgoOUOwjF0yzJbsgrb4PgdPnygXHOEfRL8B3Bj8p4MF+wHnpuWUDLw00FJpp0CCzZMXoQkFRRarDuIZpBWhMIImSoWEYa4EchGe1lB/X4NswI5O5K8wvBz8GrRFFNjjTdfgfgXAWnHgLfolRrCE48HU42Y2A8R0CDRQvB2nSZmMQCdiKNAywUo4I8uX+Pj6XNaxchn5JU2K6hTK4WxtqijASuFzgs5CtzBwXyvqgTUQYxjgYQWe+CYLJysgAH2h65i0fBzEZlwkaiYZ/gdhHkygjtJyfmoEQhnpimqcuwjT0fIL64jyRgGenxKzqCeSibGSpUdQcYSSUfJZwMnBJxReiMkTBMG8IALAfDXDBBRfEqpZkKzOdWf2wjSSg70yDPFMCOaaGxjkAsui+2kfYlBK1EBKoPx1vDNwPraJnh+RMQlOmtaO8qCnCAAQtbYAJWETFeOtDGuxoipRDFqYfY6oRXiZtg7EArtObXoOcfNc+9a1IHCYfmoDvkAJAQAiDCSKIgI1B12oLzjnnnGhOUsTbUX7UpIZhqwbQJJg1aA/yyUhk7NevXzTLunbtGivJc4z5K3LSRQgBQcesYssx3Qu88sords0112QXWQKMKTB5jPn4nKtrmiIM4LiyqDHneCZIo9/iKC+cMAGYRZtttlkkAwWwN99881jUjy35ZQgzOV/MkEyr6yO4mERk1hJRU59yWLkOUCuAQVBFfth/1113xVmSkEz70mdqDJAU0pBwiW+18sorR0I6KgMnTADmEiP9mF34Fry1qQZD6j1RM3yGww8/PGY0p7WXKV6x4YYbxnoAEEl9koOGycWgJ0BTMa7Tl8HCAPok2gZhpIXS52oJ7rjjDvu///u/mKGsax3lR835MAiX3ubSAPgYRMkwu3h7s2jPq6++mh2HwWzC3yAbQEUvuBZSUDFz6aWXzoaH2U92M4OcVIYBzNaEgNQJBvgbp556ajxPhOG+zQk+x7g/aTuQlFC31qJRP47youYIk0LCCTEwv0i+TMFxGpX5WeIbMw1to2MMcFLzF6dbYWHA7EwIhtkEunfvbosvvrg98MAD8TvJnISoCS5AFN1HBG4KaDK01TzzzBNNMp5dLwBH+eGECUDYiZJpUDL3bc0SC/gvLCCLgAP8F2qSMS9fU4PZx7WHHnponBgmDYX/w/INaBpAZAwTj7JIqVZpCWEw96hk/7vf/S67Jgx9tORaR/FwwgTgSFPHV3P2c9/WRMwo2seirQJap0uXLpEYaBCIpDc9k7kYu9FUgc6dO8elG6TBCDIw5ZnpuOn9cu/bEAggQD6yBJjUBri3ggeO8qKmCSPwhiZ8THhWb/xUkEnGpDKmps1CMN7uOO0Qg+CAQr2kdfz973+P+7meIAFLNlBxpnfv3vEcCgdikkmjtYQogPN69OgR13nMLZze0j4cxaGmCINQNWTv8x0nHNMKMuSeQ0o/ppcce8LGCC6JmBCDELFMImqWYTJBPkD9MTQXUwUYe+E8CIPDrzoBuhY0JfgECzD3/vrXv2aLDvIs6fWO8qKmCINg0RoSSvwJ5mJonIM3N0Ag8Tdw7JXGgtZgcJPi5RCB0X/65Br8FFLUyRTgXqSs3HDDDVELMXhJRI4BR87Roqe6V1NkAZpisMkmm2TNMYIQmGNOmsrACZMB/shee+2VjXZJAHHQGaNBwJV+Qsj5oIMOimMhaAotxcD6MBAJc4mIGMRjTg3TBtjPmvokdyLsXK8wM/dL79kYeBbSc6g2ozEeTEFI7qgMataHgTQpcTCvIAVvbPZLeFl4lJAzkS4JJkQhrYXMAELNI0eOjPtJqyHUS+Im5hZ9kAWASYaJBikJCzP9FtNKGdFAEbaUNHpG7SPqhulIciiDn4DnlYZylB81TxgaYM4L6+QjiAiohBABJ89MBRggDeFl6hiTYwbJtPIYvgwO/k033RQb5xIoIMsZ0kA60mMIGHAvom9Az8BWYWug5xNhGL9BS3F/+uYYz8k16sNRXjhhMoJGJAyTDFOHfRJSiNKhQ4dohgG2nIfJRWYzAkwmAMBPQVN169YtLolBH/TLPghEuJlKKBCMCBuhaaAIW/o8QN/1LAQL0GD0n2oj1zCVgxMmI6CPPPJIrEEmP0X7CQWjRUiXQbDRDozQEzFT9Iu3PcEBxnLQVIzLkGYDiJpxHpqFbAGEnRXHCDBoDXoJPJpCJAB6Pu3D6af0E8TUMV2j53WUF06YjKARsWIwUNoCIaRBABx0/BU0CqYYDjwJmwiv1qfk7X/IIYfYE088EUPOSuUnm5l9EJFIHGtpsjIwPo0yAbgPpCHgkAq+nk+EwZ9ieYyUMBqw1DmO8qLmCSNBgxBMGSa5ESDANCaQMSpPZjJagjR9zCwElXrGWp+SyWdoHs7DZ8GUQ4OwJQDA+ZhiVNdEyzCzE3B/tERD0S49Iw1AQoIM6Zqaul7nOMoL1zAZQWMgkEISWlVMxzDBGNDE4SYthfEYnH3IQFV/wsYILeMuEAaSEQ2jQRY0CQIuTQBEUjnuNBFUz6N9nMsWMKbDM2LmcVwEg2y6zlFe1CxhcoGPQoo/67akwNSCGJhe+DIkXCKcaAj2QyKWyWA8BlMNMG+GHDMibPgqEnCRQmhMyNmP1pCJJmIQjiYTWuM38l9EPEf54YTJAI2BDyNnHWGVJmAshYlakEZVXt59990YscJM481PXTNVzoQwmGuYYmQJQBxpC/ptSsBFEM7V/UUyngPCMA8HcJxjTpjKwQmTAc4+syfxTwBmDm9wgDBK0AWiZGgPiANhyGbWiD8RN0LRG2+8ccxQJoImoaY15XNAgvRckQxQqhYyEnwQUmI5yg8nTAb4KAi4zB0JNFsRhc/yF4h6Ea0irIyphknGqDvHiX4xXkMgAUefQAJ9iHSpWdYQRALuI9MM8GwQEdMMpMeb69NRGjhhMmB2JG9vRuv1hgdsIQBaAqFEOBUOxr8hoZJBSkK+gOOQRtD59CmyyPdoDNyT8zgnPRd/ifppLPcHRKyWkNBRGjhhMkA7MN6CnyJBlOCKBNIUCHFKIAkr5/CZ49I0nEdffGY/x0m/4XNjkOZgK/LSyBYgpUYDnvTrqCycMBkgyES9CA2LLGwl4HwWEYCOS9sAzoVA7CfFhnMl7OqTc9g2Bc5VE3EgHlE4Jp6pVoDI21x/jtLBCZOALGTyxPBPUmGtJLivtIpIAwhKMIBK1E2DqxwTQR2VgRMmAWFbSilpFB6hbYlGKCW4F4TJBXNhiMqhYTQXBkLzfBCm0sSuVThhEpB6wmQxiCNUWhhzSaotsz3xX8glwzwD0oC6xlF+OGESkPLCaL+mDvOmr5Yg5hKBiBzmImFs+VE65oSpHJwwCZg6zJwVolEA/4C3eKUhArDlGQDab6eddsoujc4x+S4611F+OGESUKCCOS0qYQRZqkEYCKD7ijAkebZv3z7mpYGUJIrGOcoPJ0wChI6ySWQnS2Ar/fbmXtybLU3mF2kxlHpKq10CzMaGggSO8sAJk4FIwQxLKrOQKgMqSRaQSxgRg+kDFAhkMhoQkRkH0jmO8sMJk4E0CktSkCKTVuOvNHiWVGvwmcqcrAXDRDXAOTybto7KwAmTgQjD3BaK5ZE4CSqtYQAEgCS6N+MuBCOY2kwpWiCi0KSNHOWHEyYDvaVHjx4do1Gqg1wNYcy9H5U2KaCx7rrrZiteiiiCE6YycMJkIGLwNmc0nXrKQiWFkXtJ2wnMucEcY0kOVbUBnCuiV/IZaxlOmAQSOqpL4jMoQlVJ8Aw0HHk58/hVq666ql166aVZZx9AFr7nahtH+eCEyQCB05gHxcMZVWfkH1RaGCEAPow0DWMvq6++ejakLILQ+ExzVAZOmAxSwjDVmJwyaiVXA7kkIPOAJS7S2aAijaOycMIkkJCiWShnxJLj1YC0h8wtSs3iw2gBWCdM9eCEyQABlH+AOcQcfUq8VkMoRQieA6134oknxrQYhZQ55oSpDpwwGeAvQBj5DdQfoxK/5p5UCiKKyMDUaaJ2FNqgPC1wwlQPTpgMNBAIaQCOPxX2VYesUoAEEIZnAUyPZj0YtEw609IJUx04YTJASCELW0DNZOoYa5mLSgIySNMx05L1aVhxWfucMNWDEyYDBBCyiDCszU+kTJUwU+HkXPk75QD9cg9AkcB11lknu2S5o7pwwmSAkKYkwF+g8DiFxNmn40CEKSdEGMrCUsKWkrSO6sMJkwAhFWEwf6hTRvV9HG/tE3nSc0uNlJys1MxzaB1NEclRHThhEsgkk7CyJiWLJjVUOA+hFoFKjZSMpMOwAK2W93PCVBdOmAQQAIGUH4PfwDJ++DO5QKA5r1yEESAsvpQIU477OVoOJ0wCaZZ0WjAFyl944YX4HSCwnJduSw0Rhv7JOMCHUe1mJ0x14YTJAEGUZmHaL9+pvM/sy4ceeih+pyHMCHI5TSORgpAyI/yk9fMZ6JijOnDCJJBJxhbg7LMw0imnnBLnoSCsOiYClRr0KTKyKtpaa60Va5EpMdRRXThhEogQEli2ON34EGn5WM4pl/+SgoWZVlxxxWydNEf14YTJAHLkEgYw/kE1TI34cwyy0NLzygGidEsuuWS2voCj+nDCZCCNIa0hMqBZCOsSAADsV3Agl1ylBM+Dw/+nP/3JXnvttbiv3AR1NA8nTAapiYVgylf59NNP4+xLSrRqnwjDeeUyy1jvn8J9BB0+//zzuK9c93K0HE6YDBBGhYlxsOVkU9APDcMqyrnZwuUEsz6XWmqpmHQpgjphqg8nTAL5JYzDaCyGEPO5554bl5lQNUwEuJzmGGDdzIUWWii7qnNKaEf14IRJIGHMFUqENl1oKTe3rNRAuzF5bdNNN41FyEWWcms1R/NwwrQARKnwJ5588sn4HYGWEJcDpMHgN2EKMi0ZoqD9HNWHE6YF4C1PXTCKUSC8kAUBVhCg1GAFtCWWWMJ22WWX7Dx+R+uAE6YFIFK2+eabx8IY8m0gS7k0zG233WZzzTVXzDBQoAGt5iZZ9eGEaQEQVqphbr311tnaxuX0KW699VZbcMEFs7Ms0WgEH5ww1YcTpoW49957YzFwrc+CEMs8KzWGDBliyy23nJ1//vmZPfUarVxBBkfL4YRpBhLQV155xdZbb70YYhZKEebl+tx+KCRIDhmJnwowQBbMQdcy1YUTphlIkFlygqjVhhtumJ0ujBAXKsD0Kw0FKSAN/QEIQ0rM4YcfnvWZyqXNHPnBCdMC6A3fvXt3+8UvfhGL/BUL+mM8B6JACrZaf3/UqFHRJGOtTcE1S+uAE6YFkLAygPnzn/88VqHUvkIEmWsgC5oF4sjskgZBg2GSnXXWWfG7o/XACdMMUkGm5BFvftL9NWUYzZAvpLEYyyFszGfMMKXeMPbyl7/8xc4444z4HegZHNWFE6YFkBZhodh27drZMsssU9QcFYQfrYIpxpb6zSR3HnrooXHJQEb6//znP9sJJ5yQuaI+p60QcjpKCydMM0C4lZaCqcRYzNprr2133nlnrHtcCNSnCIOGeeyxx6Kjzzow+EiLLbaYHXXUUZEoQP6Oo7pwwjSDlDDMuvz3v/8dEyMpjKGlyfMFGksag62cfTKUF1hgAZtvvvniSD++EoU4eAYa57N1VA9OmBZAb/Y33ngjJkUyx54JXspezhcIPVoF4sjpB5CHKpeQhcbkMflKnENzwlQXTphmgIBKoEmKpLDfXXfdlRX6QpASRk3jLW+//bZtsskmkTCrrLKKDRw4MO5HC7lJVn04YVoAvdX79esX64SR6wXYr2OFANKIKPgoIuDVV18dCcOYD5VjAKTlHMjlqB6cMC2AfAfS/AkpU9Ff+wuFtAxmWEo8+mQxJ6rFQBrKPOFDcVzP4agenDAtAIKNoLIaGT6MkiIVDMgXaAmZeZCAz+wTcRibYanxRRddNBKU6QUy3RzVhROmGSDAMpUYWCRydeyxx8bvmFOFCLH6pHE9WkafpbUIWe+99972q1/9KmuWuYapPpwwzQAhlp/x3Xff2UEHHmgHHXxw/I5oiy6IsTSEWlOgX2kuPut8ttJcDzzwQCyE0aVLl2wYWoRyVAdOmGaAAEtIEeQTTz7Zdghv/kksFvvuu8SamYQPA35CmkIhImECslwfxTC8en/rgBOmBUBIoxYIn68JDvkZq69uk9Zf34K9FP6C4U+47LJmXbtakPD6C4qEzDVwyCGH2OKLL56tvNkWwd+X6p5oVC1e1VrhhGkBIMt0zKHwedTxx9tkSNJQ23BDqxszJqtpCgUajRAyYMm+P/zhD3bFFVfE52iLQHPvu+++4U84V3YR3taK8L/saA4IP+/7uqFDbdbSS/+UKEmrO+44qwsCX6hoQzOu1eIWX06YYBsEk2zvAw6wCZmCGFUFNQ1Gj44maKlAlPDA4Bv+3//9X8wIb80I/8uOliDqi06dfkKQn7TFFqOQGZma9T7OqFHk61PVnKmU9cL24Yf1fg8mHL5J0Er26admY8farLCdxr4vvghs+dJmhu2phx1m2/7jH/bBkCFm33xT3yZONPv2WyIRZhBp8mTSARgBrW8//kgYD2nExkNt1Qt5sT7Q8OFma65pttNORCXMqPtcYHhdgDCkBDlh2ggQsehRbLnlTwnSUAsawfbYw2zXXc12373+8157me29twXbw2y//cyCxgivVQuSgqNiFkhhhx9udsQRVkc76iib1bGjWTAB399uO7tz0UVtLP2ccopZly5mJ59c//nUU81OP92MuTNMOPvPf8zOOceM2gPnnWd2wQVmF11kdvHFZpdcYtatm9lll5ldfrkFO8+sZ0+zK68kvSA4aNeYMSjbq5dZ8NXsxhvNWJvmlluo/WR2zz1mp51m9stf1v/Oeeax4GDFZ7bHHqsnfwFICYOvxnRwakuz1AiNJeBbC8KvdjSHmeHNHE0yBDaXHLltvvmsLryFZ4Q3eR1vfN78aAK0AhPEcGoxa9AoaBg0DtoHbfT222YsQDtihM0aNsymDxpE9Q0be//9dvw669hjJ55odc8/z0w2m/nEEzbz8cdt1qOPmoVWx9s+nBeF+q67zHr3rhfym2+uF36IACEgR48e9YSBPJAJUkEwyMb0a0ghYoZ7GlOlGXs6+mizHXc0W2CBhn/7X/9afz6/Iw+khBkwYIA9/PDDobv6BFQaUylaC8KvdDSF6L8EkwaLfRaCN//8PxWUpM1q185mYErVX14Q5Meoj6+//972OvhgOyEI8uRMiBsfh0+cx/nF3C8vBDJHrZL72//4R7N99qnXWHlmcaeEIV+PKQ233357UGy3xKaQemtA+KWOpgBhaAjk9OAr1AXz6CfCohbevHXh7TgTP4FWICCoBkuJmBEd6xXMJBaHZVoB0HGOadymIggawFZYwWyRRcy22KJeO7EPTYm/VABSpx8TrDUj/C87WoJZQSDjW53i4LvtZtNzNM20pZaK9n7USEGIiwkBQwCECGjQdHgw81hrU2kyGqfhPhUNN2NSDh1a768QWCgB+K177rln+DN6WHmOR9Qumbe8NM2MICifB8f53mCa3BD+k7v/7nf2cZ8+8fyp0+vXvywUup9II81BiVpqO7PuZapddFzbORH8jt7B5+L3FTqLtVJwwrQACK/e6BJMJhUff845Nte889pvl1vORrzzTvQlJOQIfaFCzHUIEX2pHwYyyZJGqCYSUs6cp3tUVMvUMJwwLQDCCGEQXprAOvrLLrtsLFgxAmc4QMTSthBwPxElJR6O8E477WRjyCYI+zhPzVEZOGHyQPpGB7z1sb2XXnrpYNYHuz4AokiI03PzQXqftA8iSCy70bdv37ife6k5aSoDJ0wRQEjPCWbZCiusYIMHZwjD/kwrjC6NgxmfW2yxRVwGA8LgK4mYKbEc5YMTpkjccUdvW36Fle25554x+7avzfr4Iqv7+EKr+/IOq5tR72uUClSp2Weffeziiy+OBHGyVB5OmCIx4KWhttF6f7RRj29sNnQxs2fDn/SZ0Pr/PDg57c2+KV1uFM4+CzudfvrpWV8K0mCSOWkqAydMkfho9Lv2/NWL2CyI8kLSng+NfYOXNZs0PHN2cYAY3bp1s06dOmVD1xAmDT9XB7XjP4X/UUcx+P797jb9uaBNUrKk7bnQ3tk/c3bxuOzynnbgQYfatOnSMCQLo2Hi1+rg+zfMxj9iNqWwwoZzEsL/pqMY1L2+XT0pGiILDU0z8LdmYy4x+/J2s6/uMht3v9nXQcAm9AkmW99gaz0X/J8Xzb4bFLTRK2aTRwQhfCsI4CizH0ebTR1jNu2LoGLG243XdbOjDt/fJk/6Jt4f3systjU24algm/7KbMifzT48PXwPv6mu8LB6a0b433Q0h4bMnVlhF3vrXgu+S3OEYfvekWYfnxME6tTQTgmtq9noLqGdFFpnsw9OCO340I4L3n2n0I4JrWO47ujQjqq//oMj7b0+7az/DX+xH0fsHfYdbLNG7m91aLB39gttX7N3Dwz7D6+/lv64x0dBiD8+2+yTC80+7WY2tqfZZ9eafXFTIPFtgcR3BwI/ELTEY0HYnwwkfjZD4MH15iQa5Id3c8g7ITCVCW3hr/BNIMxLv683QWkDfm325vbhPt3DNa0ncbIUCL/O0RwaikSRW8aemW/tYdYvQ4qGGoQZtFS9oIG64HvM+jFcODkI3bf1gjd9XBDCz8M5Y4OAfVwvmGiXH94JwvpmvcaZHAR30lDr//jF9p8TNrMxb/SOgj1rfBDwCf+tF/bxDwftFQR/3L31mgyN9sXNZp/fENp1gSRXByHuEUgTBHnMpfUE+uS8ejJ9dGY9mUefnCEwxA2khayjAgFHHRwIeUBo+5iN3NPs7d1C29nsrdBeXc+s/3z1v1W+29OZz8PXridkM8AnoyoPflou8NG0jk61EX6Rozk0rGHqCfPj2IdsVv9fBIEJf8qGCAOZeNNDlBLg4ceesR123tveHPlR/K4xn/wQrsBkiuSdGtqUQOAf6kk887sMkYPJN318aF8Hif2qXqtM+6ye1JA/Ejs8w5QP6knZf95MdDAQ5+U/Bg0TTNWPgkad2K/+pdAMqFtNtU9qsUEOgaAGa4tSCERri1YT4Rc6mkODhMHbDpj47Xc2/N4NbAZvVZlfIgqmGm9fNEaJwLLnLLmhVByeTc9SNeB3QRC0DqbelPx/L3NeVlppJZt33nnjitUCJKEIyMorr1zwejylRPgfdTSHhgijfRO//d66du1iN56zWjBPgvkhogz8vdWNOiSYVaV9K/bp08d22203e5OZmQGtgjAzgyBHf6ZwMK7EGBMp/lcyKzSDq666Ku4jnN4a4IRpAZoizJQpP9gRRx5ru+wanPDpH9rMr/tY3fgnbObEl61uVmETqpoC03ep78w6mCBNzpzTwXz+BRdc0NZff/3o0/DbmDTHKgZK++floFaN3+2EaQH4j8n9z9F3SrgeeeQRtvXW28bvetczSlKO/05WcqaGF1UxgUb82wImTJhg//rXv6JGYZFcXgpLLLFE1KgQBO26yCKLZFs1Ksw4YVqAht5k2oddjSlBlX3A/nK+/ajqv8cee9jnlDcKIILE/doKWA4RwvTs2TOuw8Nnlv8AZGujfdQGUSSkwnDCtABNEYYUf5YHJ4sYM6LchGG5QJx+ZmACZl+2JS3DOqJExJZffnnr0KFDXLGaVdlaC5wwLUBDwq+3OmMDZ511lm288cbZKA7nl8u36NGjR/RhMF9AW9Mw/N0ovo5moTHDtDX9PidMC9AUYTjG1GFsbwkxx8rxn4wGu/DCC+2II46IRAHlImY1QYWchRdeOM5kvffeezN7WwecMC1AU4QBhDz/8Y9/xAWXAEJcDsIwEn7KKafEbGWZYSJMOe5XLfBbvvnmmzidobX9LidMC9AQYdJ93bt3tw022CCrYeTLlBqUUD366KNnIwwC1dYI05rhhGkhcgmg72wxIYjafEEB8YBS+BX0m94D4OgfcMABdtJJJ2UJk3uOo7xwwpQADz74YFxTX4NraJhCgeBDNgihZEORjzQRqsZo1Fvnsm0NiYm1ACdMCUA1yj//+c+xOiXQ278QpIRJzS4wePDgGL5mkSXAuTTghKkMnDAlACPOJA4i0ABBl5AXAkigPvisSpekxWyzzTbZPDI0me4j4jjKCydMCTBkyBBbffXVs6kavO0R+GKEWNfT8In4fskll8TcqjS4UAwxHfnDCVMCkGq/1lpr2f2szxKAkBcjyFwLQYBIQ5j1sMMOi1XuNV+E/YITpzJwwpQAOOMMXFLKFRQjvJAADSXSiDjUJMMcoxi5ggqcK03khKkMnDAlAGu2bLbZZtkkQQlxIUhJADHkzDMjkXs8xtJ4ARCEJrOs0Ps58oMTpgT49NNPY/QKH0MoljRApABoL5IutaCS9gPOT787ygcnTAnAEnMkDJ7HIqwBMqkKBdfK7AKQj5mHJCJCTpCS0QlTOThhSgBG+Nu1a2ddWEQ1oNiUe65lYprMMaYQXH755XEaAekxIJcw6XdH+eCEKQFIEmQ5PTQAUFi5GKRahghZx44dIyG/ZUXmgFyCOGEqAydMCcA4yaGHHmo77LBD1AbFAMHPJRuzK0mJYWYnmsdRPThhikD6VkeYmUSmBEyOFfrWhzBcK7/ko48+si233DK7LoyjenDCFAlpgyuuuCISRk455lQxwg1Z5MOQowZhWvsKw7UAJ0wRgBASasK+RMqodgKkJQpB7nWk3GCSaVlAR/XghCkRHnroIVt33XWzVRuLIYvIpj5YkhvCtPYluWsBTpgiIaF++umnY4r/U089Fb8XSxhMMra0Cy64IAYUVLzPUT04YYqEiPHiiy/Gwg233HJL/M7+Qkij6zT4SQSuc+fOsXgfA6SO6sIJUyRECtbsp2j2ueeeG78XAxEGEKYmS/nkk0+ORTAc1YUTpkhIIzBHhXwyBBszqhjQn/pgoHKXXXaJaTcqreSoHpwwRQLBljYgdeXII4+MI//FICUMUwc23HBDu/rqq7PjMo7qwQlTJBBiCfKNN94YC2er7nEhkMYSYfr27Wt///vfY6ENR/XhhCkhCC3vuOOO9s4772T2FAYIozwySEhFGkXfHNWFE6ZISCMA5vZvvfXWRVeVx8STv0LKDatvVaNSveOncMIUCcgik4w1W9AwLAxUDDDH1OdBBx0Uy9C2hvUdHU6YkkAahkjZPvvsU3TOF2QREZllyVx+LW+hezmqAydMkUCA5aBDGKq6PPDAA/F7oZCGmTx5cky6JJAwbty4eEyax1EdOGGKBISRv/HDDz/EJbJVPaZQbQBhuPbdd9+1ddZZx4455phIHvY5YaoLJ0yRQIhx0tki6My6ZKm5QqH+AI4+FTXJHhCJnDDVhROmSCDAMskA2oBl9QoF/Ykw+EIkdCo/zVF9OGFKDFJjWGc+JVG+kBZhDGaFFVawJ598Mn5HwziqCydMCSBzDJx55pnRhMKfKRTqiyqXLIrav3//+N1RfThhioT8Co3MQxaW1VN1l0Igf+Woo46K6zwOGDAg7uc+rmWqCydMEUB48TcQcC1JcdFFF0WzrBjCAPoj4rbIIovYCy+8EPc5YaoPJ0yRgCyUPpKGob7y2WefnV2SIl/QH425Lwxasma9NAz7HdWFE6YEUFgZsDoYGkYj8/kCUqBJIBwj/Mstt1y2+IWCAY7qwQlTJCAKTcLMuvJ77LGHjRo1Kn7PFyKeCENqv1Ycc3Os+nDCFAERJSUMJZG23Xbboiu8UB52u+22s/bt22dLN7mGqT6cMCWChPntt9+2nXfeOc7xLwTSIuSOoWHoa8yYMXGf+zDVhxOmSCDg5JLJj/nyyy9jDbHnn38+c0ZhQKv885//jI6/ys+6hqk+nDBFAiEmBMwWwlDlBcLcd999mTMKw7Bhw2JaDISBhEDax1E9OGGKAAKsqFZaS5l8MtJalBOm/WxFrMYgLdKvXz/7/e9/b4cffnhcBFbXOqoLJ0wRQIghDFuRA3Tt2tVOP/307GrH6bH0moYgUjBr83e/+10kn9JsnDDVhxOmBED41QCj/YSWv/rqq/gdwqTC3hRhBAhDJc3jjz8+m0XQ3DWO8sMJUyQQYmkQRbEeffTROFVZg5eQhXMk8LmCP2vGNBsz5lN74613QxtpX3w5zp7q+9+gYRaOZWJz+3dUD06YEkCCLFIQUj7ggAPiQkiAffg4DQn8txMn2vMDR9iltwyy/c950XY7rb/95/oh9thTg2zHHXeIaTYznTCtBk6YEgANgjBDGLZMLWbNSyJdMsXYnyvw06ZOsSeff832PXuAbXLsANv0uIG2aaeBtlHHAXbIhS/b9b0ft4cefMBmTK+fAp2rmRyVhxOmBIAojMVIoFmFbKuttopLYGi+/+yE4bw6e/e9D63rlS/ZhoEgHU4YaJsnbcOOA63TZS/Zcy+8FE79X9DAUV04YYoEJJGPIm3y9ddfx/SYPn36zKZ9aGDWrOD0z5pu/Qa+Zjt0fdHaB82SkoXW4fiBtlXnAXbDA0Nt3Dc/2NRpgXCZ/h3VgxOmCIgsbCGFCMNcGAYcyVwG6Xn6HHSOPfvia7bTKQOaIMxAO/GKl+2cW9+2U3u9bZfeNcpueeJje3Tg5zbg9a9t5MeTbOy4H+3rb6fZpB+ClpvuhCo3nDBFQEQRCUQYSiLttddedvnll2fnyejY/1BnI94cFQgRzK+jB9oWOYTZ8JiBdsylA63P04Psu++n2vhAirdGf2v9X/vaHur/mV3/2Ed23m3v2hk3jrSL7xxl1zwy2no/9Yk98uLn9tzwcTb0nW/snUioKTZx8vSgndz/KQWcMEVAhBFZZHJ9//33cRzmrLPOiqkynKdjfBYmfTfR7ukzxHYMZtkGgTSbBU2DZtkokGWrk16ya+960Z577pnQdz3pIFkuZsycZZ+P/9HeGP2d9QtEubffWLvqodHW7e737Yr7PrCrw+dej35kN/X52G7v+4k9HAjVf8TX9uaH39nYr6fYlGDqOVoOJ0yRgADSMJCCz8yWJMv4sssu+4mG0fk0zv9kzBi7+/EhUZvscPKAqF0OvmCQ9XpgmHU6vrPdcvNN4dqZsR+2+QAz7eMvp9iI97+NWueBF8babYE0N/X5yK579EPr+cBou/ze9+3Su9+z6x750B4MmuvFEeNt5EeTgpk3NTxjpiNHFk6YIiHhz/VhKEquCpiA48o3k0ZiH6T57tuJNnzEO/bwU8Psvj6D7NkBr9rwV1+1NdZY3S6+6OJ4Peep/2IxbcYsm/DdtECmH+ytoGkGvz3Bnh76VSDUZ3bbk5/YVQ+Otgtuf9fOvGmkXXLne3bLfz+2x1/6wga9NcHe+3RyNA8h449BO82YWVlWxb9XeCEp+yEFx9DuikyWA06YIiECpAJNSgxhZdaLkY/D8TSrOSUOqAvaY9rUH2zUO2/ai/2ft08++djWXnttu/DCC+NxXVdO0P3UabPsu0CGcROn2pivpkRT7/lXv47a54bgN114xyg77fq37fxAqGseHm13Pj3G+gz6wga8Md7eDOeO/ux7+2LCj8Hvmt4kmb4K/b8WNB/EzQfDhw+P1UA33njjGI1MQRrRsssuW/TUiqbghCkCCHC9qVQvzNIgDFgi7CyClCVE2K+WItVMkIr/7Ot79YqTxtZbb7040s81lSBMSzArPAOk+uzrH6Op9+ywr+zuZz+1Hvd/YOfe9q5dctco6/ngB3b94x9Z76fG2P3Pj7X/Dv4yaieievhbaLh3x0y23c4cYodd8lo0F7+ZJD+taTATlSUM55prrtmWFRk/fnwsekj+HZ+F1157zR5//PFsImyxcMIUCYQcoQcINaQhl+xvf/ubDRw4MO6XwKfQ95QwnEdJpZNOOilmCzCBjGJ+7E/v05oxacoM++iLH2zYqIn21JCvoga6NvhHtGseGh2DENcH/+mcW9+x7U4eZBse3d82OKq/Hdfz9RiQaEkQguRWCNOlS5fMHrN77rnHfvGLX8Q1RlPst99+9qtf/Sr+PUsBJ0wJgCAj0ADhPv/884P/sUZ26T4IkZKKz/qeSyZMjiOOOCLmo22wwQZ22mmnxeOcNydjetAq+D6YbK++N9G63fOerX/kCzHIsdnxA+wfh78QyXP4pa/anc+MsSlTgymbuTYXFAVZYoklbOmll85qDpYZgURaqY2/GY3abpzLglSl+Ds6YYqAhB2tkqp8ildstNFG2ZmSHBdBRC59B+l/JKYY4zfKR2NeDdeDUvyHtxbcHsy11Q98LpKk3bEv2ladX7Ltuw62bbsMsoMuHG73BDPvhx8b1jb8Hdq1axcJQs02fEY0OkuD8Hd97733bLXVVotFEOeff36bZ555bKGFForf8XOKCQo4YYoE/0E0RW0gCZqhU6dO2YlfuYTJFfz0O9c8/PDD0Q9ituU555yTzVNjy7lzOshIYOB1//OHWdfr3rIe930QB2OHvTvRxn071aaG4/hJTb0brrrqqkgYJuuRgsRnNDv48MMPY5Ry/fXXt0UXXdTmm28+W3PNNeN3zDm9gAqBE6YESIX45ptvjmMw+C8igQjDdxFH0DlpHy+++GJcxeyEE06Ii8JKe6mPOR1kHXz5TX32QqGgMAhkICrG3xsN8vLLL2eO/g+HHHJINMlIiC0FnDAZSBAl1Ol3gBmV+im5b3ri/0888US0mXn7pbMkc0mSC/VLVgB49dVX4xgOIeXjjjvOPvnkk7hfz+Kox9577x01C22XXXZpcMWEQw89NBKr2KXgBSdMDhDu1PRBO/CdLQ3hTgWXQbRnn302juoT3SLhkqqVXJ+ex3/mddddZ5tvvnm0tfkPpkqmiEXfSqOhAAYhU6YHoGXeeOONeE4uSWsdmGL4Jb/97W8bXcQKn5AACvWvSwEnTAYQJW0Sdj5rwJHGd0hDoT0czp49e8acMZbpozysroUA6oPlyHfYYYfogOqNSPvlL38ZlxXHaYWUAG1y11132eeffx7vwdIZCk87YWYHf9+JEyfGsRlp6XLDCZOBNElKFPaBdB8CTc0xnPHu3btHB51qlylR+M9Lzaw999xzNqLkNjQT10NMlukbPHhwlhw4qb17945vSD2Ho3pwwmSAMKYaBOHls0BBCxzxM844wy6++OJoLmnOPhBZaFwnjfHII49Ek6EhoqixpMWQIUOiJsIPgmQiDEEE7unr9LcOOGEyQBBpECXVNPge+BSkqEAU3v6kXqSCK3KxD8KIeABN1BBJchsLv0IYbG6ul4YiYkaIWn5Mel9H5eGEyQAhpckMA/gkxPZZOu/BBx+MtjJAaEUKfWYrU4zPcjIZqW+IILmNiBjEywUJhieeeGLUPI7qY44ljAS8IegtnAo1Wwm2jgN91jkCy1bwZse/GDFiRGZvPSCF7s11+swW7aR7gttuuy0OnDVEEjWOEzWDND169Ih+DJEdLftH2VlG/0uVQOgoHHMsYRBKmS0gV2gRWJqEm8ZnEYcmoU5BZOqaa66JRSwwwYoVUgbYOnTo0CBR1JjOjE90/fXXxzAyuWQdO3a0o48+Og5cQlzOySWuo/KYYwkjQgCEX76DSKLGPsB+kQVCYeow+kvUC/8A5/ySSy6J6SiEiQnlMhjZEKnyBQ49yZgNkYV5HVr/ReC+kIOsZwZBGbxcffXVbYsttogDcUTOGIPgOn5jKZ7R0TLM8T5MShAgggB8AuL0ONM47gwcnnfeefHtTYIkWmTfffeNjRQKTCJMMdVEBpAr7bNQINyYd3/9619jqsZaa60VNRgarTmgpdA2pPqLRGginp+cKRI0yQyAmLwAMOWcROXBHEkYaRLANlegERjyihh1v/TSS+McCdK/SdRDSCEOsyEVykVoGZ1PR4PpF42U+iOlACFjNEhTI8/8HmlDwDUMkGIqKihB9I5oHZrojjvuiKbbrrvuGhtkwuchk+Cll16KJNILxVEc5kjCIMBqCJaAMLFy15133mlnnnlmHMPo379/DAWPHTs2psy///77s10jsA+NREMY0Sx8roagiTAiKgRjkLRbt27N+lSYmU8++WQ0LzHfDj74YDv22GPjZCtMOQZdIVmpUkVqDXO0SYYwI9gAIcP8wtwi4sTS34SCEY6+ffvGdBPMFr4jiAgMmiUVHAQT0tEvZNHnSoJn4578HmkYwtmYjIzpoG2AXhgiVWPgb4ImJVuAsSRWAyBMTpIoZh7mHbM8FTJ3NI05mjB6E2uLkDPp6l//+lf0S3ir3nDDDZEo+CbkZ3EO/gShW2bu8b0xoVPfjQmmzCOg8wqB+qfRp0ghQHhS2EnyLPQeAtoTLUvtAEiE1mHRJny63XbbzS644IKY7oM2hkSuiWbHHGuSCXwWYQARJcq0YopgkiAARMFGjx4dtwgdZGFZcDQKvgsTjoiKMVMPgaVP+qPpswjBNoW0HMRD0DGZ6BPtxWQyUlrwIUijgaiQlghdc4LIfegLXwvnnpCzfmMpwfNDDP4GJJMqtE0wYffdd4++Ua9evWLYmxdMGhBpDPxeplrz921rmOMJA1JBhgxbbrllnF2HZoEo2O2YNIxnMGLOfygCQlBAuWGYbAwWSuNAHJFHZAEIAQEFii7gI1199dUxiMDgIk45kTYyjBE6fAfMH/kSbA877LBoNnJPBjUhMMIFmZl3TnYB36l0QpYBb336p/xsJcFLgGe5//7749+IBFIKSjDFF9MQEqH50Fa5LxG0+fLLLx/Hjko1D6W1YI41yVLSSKhpCPwrr7wSQ7hXXnllNMkQWv7jEUjelJDq2muvjasdE33i7Y9ANvUGp1+0Em9grmNcpX379tGcIcAAAXDMGamnb+ZnEHxA8MkHozgD94akPBfmItcySAmZaYwBQSY1nHz8DxEXIU5/d6VBeJt5Ogpr84z4QfwGNBEvAP7G/Pa55547jjOtssoqMZSPL9UW0CYIA0QagYldvLURYMiDZuHNR3iZfWgZTDDMJ8wmjmGW8cbE7CBkS8iZ2Y8ED3CY8Yt4yyIckIH+Mbvog1A2JhQaCHIh5I0REMHHDEIAuQdEhFAyFzWewm8A/C71XU3C5ILfjFZm0BcSMeCLSUxNttwB2k033TT6TPxt5mS0GcIA9tEQSAQW4FcQGeOth7mEduDt/thjj8W3JSFYTAxMJswNyMB4DdEkTCre/ESUeKNigiHcuU55LngGyMIzIOx8lwZUawm4Dl+HhgasdMQuX/CcEJ0ARS5haGgdXlj8Dcvhj1UCbYowACFFsHgbExHSfwz7eSOiaTAR0DI0/BxGz3lT4jugTTCZrrjiimh+4atgZqRvRu7NPWgSfhFBx/Qc2s9z6NxcAnFMx9W4ln3cl8a+OQE8KybaMsssY6uuuqqtu+66ttlmm8UBVbQzLx5mp86pAYE2RxiEjGMStoaACaWQKYLZUqhfASFmX0qA9LlEgoag83OvAdqXXqv7tHbwosDRHzp0aIwKNjfQ2lLIdyKIU03MsYRx1BaIFmLWEWavJpwwjjkCBFx+85vfzDaRDrMO/5JcwebGtUoFJ4xjjgD+D4RhWkOKFVdcMZblrRScMI45AiIM4X9C8Yz5MFD8hz/8wVZeeeU4kEpdhHIPlDphHHMERBjGq4hs5oas1ciNKyecMI45AiIMi1QxsEzUjOGA5ZZbLmZdYKox8FuqGsqNwQnjmCMgpz/1YQizs+oY2emVghPGMUeAgU9MrjSsTMYFaU9M0W5szK3UcMI45giQynTuueeWbOm9QuGEcTjygBPG4cgDThiHIw84YRyOPOCEcTjygBPG4cgDThiHIw84YRyOPOCEcTjygBPG4cgDThiHIw84YRyOPOCEcTjygBPG4cgDThiHIw84YRyOPOCEcTjygBPG4cgDThiHIw84YRyOPOCEcTjygBPG4cgDThiHIw84YRyOPOCEcTjygBPG4cgDThiHIw84YRyOPOCEcTjygBPG4cgDThiHIw84YRyOPOCEcTjygBPG4cgDThiHIw84YRyOPOCEcThaDLP/B/lt3CkfcsCFAAAAAElFTkSuQmCC;" vertex="1" parent="1">
          <mxGeometry x="390" y="10" width="204" height="484" as="geometry" />
        </mxCell>
        <mxCell id="rcxjUj8TpD0m8F0G5roD-1" value="" style="shape=image;verticalLabelPosition=bottom;labelBackgroundColor=default;verticalAlign=top;aspect=fixed;imageAspect=0;image=data:image/png,iVBORw0KGgoAAAANSUhEUgAAAOwAAAEdCAYAAAAPaoscAAAAAXNSR0IArs4c6QAAAARnQU1BAACxjwv8YQUAAAAJcEhZcwAAGEwAABhzAdDp1ucAAHZXSURBVHhe7Z0HYBzF1ccJoYRAQg0ktFAS8kEghBISSAIkEEIPvfdiwPRmOqH33kwz3WDA2Lj33hs27r1IsnrX6frd+95vTk8sykk2WFGs0/zl592dnZ2dm5n/vDd1N5B2hHQ63XD2baRSKUkmkxKPx6WkpESOOeYYefrpp6W4uFgikYhz51nzs76AOMViMamtrW1wEQmHw859yZIl0qlTJzn66KPlnXfekerqahf3RCLhfge/ubKy0vldG/HIDeQUYSnMFP5TTz1V7r77blmxYoUjLKTAD89zXJ9AnOvr6xt/Q11dnTufPn26nHHGGfKPf/xDPv30U4lGo84d0vKb+C2hUKiRkGsSj9xAzhEWcl5++eVy1VVXycyZM53GopBzf32EkRCBlJAQt0GDBsnhhx/uCNu/f38Xf34//iA14PeCIDGbE4/cQM4RlgJ9zz33yFlnnSWjR4922svu4W99Ar+HOHG0ygbScv3uu+/Kb3/7Wzn22GNl6NChjXHHX9CExu/aiEduIOcIi7zxxhty4oknSt++faWmpsY9Z1psfQLxJr52HsTjjz8ue+65p5x++ukyZsyYRn/8TiohA+5G+pbEIzeQkxp2+PDhctxxx8lHH30kFRUVzg/uaLD1qfASZ+JFnIyQnON+yy23yN577y3XXXedfPXVV07z4s5v5dwQbJ+3JB65gZwjLEd6WI8//njp2rWr6ykGdn99AvE2DUlbG3Ck9/eSSy6RP/7xj/L8889Lfn6+IymdTfiFpAZ7vilBm4pHbiDnCIsfhkBOOOEEefbZZ2XlypWNmglZn0BcLe42bINFsGrVKjnzzDPlqKOOcj3EdDJBVuuQCloKHNdGPHIDOUdYO+/cubOTkSNHugLPs3ZvfYHFCQlqz3nz5rk2+Mknn+w6nLgHma1Cwp9Hx0ROEhY8+uijcu6558oXX3whVVVVzo1761NhN/JxtLYsmDJlihvOYTyZCgcSG1k9OjZylrAffvihm3jAsby8vNHP+gR+jwmEJX7IkCFD5IgjjnBmMT3Eds8T1iNnCTthwgQ3JPLaa69JUVGRK/TI+oSmhCX+HD/55BM3aYKOp8mTJzt3T1gPkJOdTqCgoEDOO+88efLJJ2X58uWulzXYu7o+wOJNnI2UEJZK5u9//7vcfvvtMmfOHOeOX8STtmMjZzUsHTV0Ot13332NUxS5vz6BuEJQfpcRF7cnnnjCjSNbL7e5m3jSdlzkLGHBQw89JLfddpsMGzasccbT+lTYibNp/WC8WbhAD/EHH3wgZWVlzs1IyzNGbo+Oh5wjLEfDm2++KTfccIMbyywtLXX31qd2LPExwtpv43j99dc7wvbq1ctVNObeXMXk0XGQs4Tl/LPPPnNT+7p16yarV6925MBUXl+QjbC4XXHFFXLSSSdJv379GlfmcN9+Y9OKyaPjIOcIaxqUNuvixYvl/PPPl/vvv1+WLVvmnl8baSvwLuKNQFyumVZJD/HZZ5/thnSoYIJxyyYeHQc5qWG5pqAzBxfC3nzzzTJr1qzGDp41SVuD+EJYjnSQscsElsHs2bPd78kWx6B4dBzkHGHxQ+HnnHm5mJdstYK2srWxwcKeTdoavJM4I6NGjXIznFheZz3EaxKPjoOcIyzAHMaNsdc77rhDLr30UtceZOE37k0LfFNpK/Auiw9xJ96ff/65Gz9mHydWGgXj1Zx4dBzkJGFtXyT8P/fcc27GUNMhkpakrUAcLc7En9U4L7/8sjPjIS4WQrb4NRWPjoOcbMMyFMI5/pnmh4ZlEgKbsoFgYc8mbQXibZ1knFPR3HnnnXLaaae5IZ213RXRo+Mg5whLZxOaiiPutAmvvPJKZxrT8dS0sGeTtgLvIt4ciTuEveiii1ynU8+ePT1hPf4DOUnY4JG1pfS4soviuHHjGgnSkrQleB9xosMJy4CdMg455BBnErMssGncsolHx0G7JyxuQcIiXGNqciwsLHRT/dj6lGVr5m7P2bldZ3vHfwv2Tqtg2AT9z3/+sxx88MGNs5wsbi2JR8dBuyJsEMECa8SDtMB6gwEEff/9991CANbGorXQZjzHPc4B/m2js7aCERUQj6lTp8rvfvc7tyzQtmj18AgiJwlLQcedawhBe/Cyyy5zM57mz5/v3I2wDKVYGJDGiN4WsDhyJB5ffvml/OpXv3Ljxl9//XVjZeLhYchJwlLQ0V4QEq05ceJEueaaa9zwDpoL8Bz+bL8nxMzltoRVFFgFLKvbbrvt5MEHH3SztNo6Lh7rP3KOsHa0tizntGMhwQUXXOA2NbPnIShEMaLbM20J3o12ZZIEPcRbbLGFW8Bu29oQTw8PQ84RFhKaG0dIiJblawBMU2TGk5ma+Iew+LFrnmlLEE9MeEx1OpzQsB9//LHb9pT4cN/Dw5BzhDUyWkG34R3WxDK0wzdrgjOIIMv/irC8yyqNwYMHy+677y4HHnig+xAWpvr/QuN7rN/ISZMYUNi5ByEh8cCBAx1hMY2XLl3aSGw0shHVnmkrEFfej/nLlMStt95aLr74YpkxY0ZjReMJ6xFETnY6AVsAYAWfSRMQ9uqrr3aEYDYUCD7f1gThfZjrtLH5ls6PfvQj9yHqvLw891uCFZCHB2i3hAVB0hrxOAImHUBW06B8UIr9naynGM1rBIc0kKetCcI7iSOL69lhYquttnITJqzDKfh7PDxAuyZsNhjhmIdriwAQdp9g5Q4als9QQk7IYn4xkZuS/r8NKhM0PWOufAv297//vZs8waoi4uwJ69EUOUdYAyax9RgDNhNnUzamKLLUDrLiB+IGZ0bhvy0JSwfY2LFjG3f6p2KxDqe2nnnlsf4jZwnbVDtBSoZL+N4O391hF0VICzk44hdytBVZAe+jvfr666+7L6136dLF7TIBkdH4xMsT1iOInCSsmbfA2qcce/fu7bYPZZriggULnB/7hCOAIPhtSzD+SnwOO+wwt48yGpY4mEns4RFEThI2aApDSAgMAdhQnP2SjjnmGBkxYoS7bwTliLbl2bYChKT3mrHX3/zmN26RPR1QRta21PYe7QM5SdhgQTetiRs7EjKnmBlFrOAB5tfMYyNwWwCt36dPH9lpp51kzz33dCY7HWCQFaGi8SaxRxA5R1gjoGkoCjzngPbiM888I3/729/ksccea1zVg9ABBUHMb1uA9/P92t12280tq6PziThYPMyc9/Aw5BRhIR6FHJhmNeIizM9liiJjnkxUsM9QQmrrMTa/bQHiyAwsTOK//OUvMnfuXBdf4kncg5WNhwfIOcJaG9SIaASk4KO52J+YbUT52POkSZOcH9q51u41gq8NLOzmhPeZhiT8oHmOcM7X1ukIYwyWyR08Q3zwa2QNhplNPDoOcrINa7ACTcE34XurN954o/z1r39147LcxzQ1ghvJ1wQLuznhXZAPzc01R+vUgqgc8cOeUyyrox3LhnE2A4tjkNwtiUfHQYcjLO3YF1980RGWDij2UcIdjYZAlrVBkDAtCSQlfAiK4IbZDoFxZ1gHjf+zn/2scZWO+bHKY03i0XHQ4QhL+5B24wknnODMUHYnRJsZYU2rrQkWdktCWEyPtEoAN+IAGdG+AMIymQPC9u/fv5GwpoGD4TUnHh0HHY6wkIX9iZmssNlmm7nFAGhdyAUg0tpo2SBhsglhQD7TpLhBQq6pIIgH7nQ0nXPOObL99tu73TDMhPaE9ciGDkdYiMQXAOgl3njjjd0MIwgMUfELkYy8LcHCbk54F2EByMc5gha3ti3TJRkb5tMcu+66q0yYMKGxsvCE9ciGDkdYZNWqVW7eLutPmUTBChkjU2uaxID3sfomqGkRznknPcMsWme3xGnTpjUSFlIH/bckHh0HHZKwLBhnoThL2pDu3bs7bQep1ka7giBhmhPIBylZaIDG5B3Tp093QznEAVLSa00vMRqW3R2NsDzHebZwm4pHx0GHJCwLxPlIFp/F2Hzzzd0HnyEV9yAJxzUhSJhsQhhm/tJm5ZqdLm699Va37zDTEAsKClynE7s57rDDDjJy5EhHbMCza2sWe3Qc5BZhKbt0viIoSpSVFuik/sXScQmno1KfjkhJXZl8OayvHHHMEbLL7jvJbbfdJLO/mi5RJVY6npBoKi4hDSSswp8+3RhwSiWuUi9R9YO/hEpSIvryBATincq5dDzTSwzhrH3MVqbs3njKKac4U5xhJbY0peJgHLZHjx5u0gR+0bBraxZ7dBzkHmHDKmwkgaJqJGxCnaJSpzeRgpoi+ajfJ/LXY/8qf/n7YfLWW6/KyMEDpKqoSG1RJWoqJlX6RI0KfwkXaEaSKlGVGpVqPavWF1Wra0ipHIdAVBRRfW00M1kCQFzOIeDChQvdPOb99ttPdtxxR0dc5hIzrAN5ae8ayY3w2UgaFI+Og9wjrGq2Ru2qlq0WaT1FwyoRVbtGVMsWlhXKOx++LaedfrJcctH5MnPSJBnZt79ULF0pUq8aNIXGjCvv4qo10XKqXZMZSask9Vr1n2rZuFYACZWknqfVRbWqvlMfl2Q8M+YLoSAd55i4mLq0VfkEJmbwj3/8Y9f5xTkTOjCTre27tu1Yj46D3GvDUoADZViLtNIppcSLKxFVa6m5W1paJB++9450uuhiuf/W26W6sFTmjZsitXklIiFlO6xzbFehEyihElN3RE1mSdKTnFC6om8ha8oRFrPYkVafTqYyGta0ZHDslTb0Z5995kxhxoI32mgjNw7773//W5YsWdJIbE9Yj6bIKcJSdBNKMtqSWsyhnArHlBKIXRyUYkqgsuIS+eS9D+SK8y6U5x56XMI1at4qWRO1qkUj+pRqR1HCKbsy5I2pRJW0SEwlrqErkZJ6P6bvi+o7ICsSbjg681jFdrTg3GZUYe6iSbt27Sr777+/bLrppk7T0lvMmDBE9Z1OHtmQU4RVWkmtUhUTNaxXEAltl6JQJxuIp4Qsyy+VD17pJv/62/HyxtOvSKRWG71h9aPtTveACe1g5j7QJv6mGZsR3Lin/gg/7siacu+nTcsRMkFSIxbDOkxVtPbp7Nmz3QQOOpwg7VFHHeWGfLiPduZZ/NnzzYlHx0HOadjmCJtO6l0IG0tLSX6xvPrki/KX3x8qXZWwYSVsUomcDKtoG5ieXjqP1IoWbcKKNntFm78Zkhp5jbD40WDR6hF9J++u1rfWYDKrhjSTFhIaAQHXy5cvl1dffdWNBWMW77XXXm6eM2RFyzK1EX9NCdpUPDoOcoywaSVMzIm2HpVPah6rO9atIyDkU4KVFJXJm6+/J0f/80S584GHpFyJVJqISIUyD6E9ynMIShZRDmdUOI4azn8QN6Gmt76EoSB6j2uU5dZLDHEhn5EVkkFIeoyZwIFZzDRJhB0x7Ns/5ndN4tFx0PEIq1JdXiMD+g2Tq6+9WS7udI0U1FRLuTK5Up9fEaqS8qhqQn0OWRfCQlSAZkVsUgbnkJlztCwktQ6oO+64o3EjNkjtTWKPIHKKsFAWQzgjCRUt0OqKNUw/kus30mNlfViGTpok51/bSU6+7FxZVJ0vpWpMFylli9JVUpuGdpjVaUfiEg2jWIVjhUq9hqdcyxAV0iKu/auE1BqB6iKmTIagCKRDsl1DSuY2P//88254Z++993ardiC1tXWzkTQo6xOIDxURYr/XOs5aG4RtlV/wOpeRc4RVY1OPmdYrVxSTIGHpBK6MRGT41Cly2hUXyaH/OloW1eRLuerlYqlSUlbpWb1ElHi1qjHLNQTIWqCyQqVIhc9oOcKiaY2wkW8IG1eHeICwzYl1LtGTzLTEgw8+2I3H8kkRlvyhoYPEbE7WR2SLX2vGl3SjJ50KjQoBELZVDnTwmXsuIecIKyklrLN9sV3RuBmTFgUY1gt4FYpFZcasGXLpJefInw76jbZpF0gsulqidUslWjFfEjV5kgxVSiJcI9FErZvxtFo1br6Gs1qlQMNFy7pXNJrG6hDXGkHfn1KHlN6gwLQkFDYbb129erWb0wxhWb3D5Aq0hRXylmR9Qkvx4R6/uzVgw2OAcM1iMXB/fUub1kDuETaphGVmkpvUy3hsgyLUW5CsTrVgdahOFi74Wm679nI54ne7S3XhXPWwUm8uEqmap6zU66JVel0pyXil1KSqZaVqXciKLNGwa6kMCDxIWCZW8P6MgyswLQmFl0JHhxTkZEHCr3/9a7eDIhMr2KM423NNZX2CEQfh9wXj15rxDYZPhWerrbBKuG6timF9Qw5qWKWnI6xqMXVBuzpO6a1IKi0RJVVYTdDixQvl7Ruvk7N+sa0UvfuqFL/8uBQ+0kUKH7xVQo89KOkPPhFVw5IqWy2RulIpj5RKYYx2rmpaDbtOw3RlgtrAdTzpC5hQoRqWrie3HKChgLYkELaqqsoVNL5id+SRR7rhHb4CgNbN9kxTWZ9gZG2OtK2FYNikIc0KjlQYnEPa9S1tWgM5SFilaJppDJkeYrhENwSEjWljNoUWDEcltGSpDL/hRrnjpz+V+aeeIjP330++2mE7mb3DtrLqN/tKyT/OkLI7H5X6wUNE8pZJsq5YKqLlStiIlGnorh1LeXD2tgrEpRCpOc7iADqdjFAtCQXL5hyjUfno9C677CLXX3+9LFq06D/8Z5P1EcQLQpm0djwhLORkWSSfYGEHzOHDhztNC3E9YdsFKMBxN7zC1ERnCqtALszhWFILTkQZVhOS+plzZMJlneTdnXeXxQf8SRbv8ktZvNVPJW/brSVvu51kwTa/lNl7/V7yrrhGkkOHSLqqSOKpkJQq/cuTcQ0vY243DvNQT2j4Cb2o17eypmdNoCBTsGhvmUai4PGdndNOO81tGUPhM2I2J+sTspHzvxFf3oNVwo4d7M9F2591xqx2AqRlLiLHCKsZqZRhUj6aFaJiutaqQLAEE/fr9E6B0q7XIJl42DEyeZvdJLTRzyXxwy0l/IONJP6DH0h6o63VbVtZ/sOfyIJd95HS62+X8KQJqq7LneasjtarBZxyhLX1rxA3pW6s8skszVszYSlUFDo0BWYxhZl9ivn05N///nfXprVJFC3J+gTMUdrj1sNt4Ny0YmuA8Kno2BTg0ksvlV/84hdu2x/Au3ynU7sAZpgSIJVwhGLGEp1DNSqsV03EVRVW1Ul69iKpeOw56bPjr2XaT3aSso1+Iskfb6Ok3URSG2+shN1S0pvsLHWb7yELf/YrmfjHI2XBo4+JlOZLPKG6E6KppFTTplUDSkTJGVVNGI9KVO/XJENSl1TdTi2/JtECHK0Lyaply1VTK/NV7rrpJjn28MPlpcefkLylS7VSSEha/Tnh3K4bji4cesBaEjffch1F05WVSu59XLteggZx9+OSP3+urJgxTcoXzpVYyWo1cWr0N2pOJOv10TrNA22gMM5mj8KpBskc+PuW87cRcISUo0ePdh/ChrC33367IymVQtAyAXZuJnp7RW4RlkZltepURAtGJB2WCjVOS1XqoGysSqSsRCIDh8vKP/1dlm24tdSrFk1ts43Ilj+Uqo02kOgWG0jiRxtIcvMNJKzn5ZtuLsW77CuzT79K4ktKJLZcJb9SYnmrJL5qgcSXTZfEsikq01S+kvjyeRJfuUzv5Ukif3XLklcgyWUrJLloiST1Ojl3vqTmzJP5L78q//7TYdL9oktk9YjhkiwpkmSR3i9U/5wXF7rrVGmxc+PYopSr1BVKKlSUkXq9Dpd8S9KIujvhPFL6HyIVSsCifD0WKRFV8yerlXNaJabVhomVaGW4XCpfeFAmHHuwzDvhAKn+9xUSH/qGJJb3l1SFNivCw5W88zQPtGKq1vzC/KGDwTUpMhMtokp85mRjISHcompwJIVnKGhEzyEew19sxM6eWDfccINrYqDlDWhi/OHOOffMmmmPxO14hNXCXvd5X5m77yFq8m4ttRtsJjVqBqc220DSStSEkjb1Uz1HNvuhlGy2sQzZZHPpvusB0u34s+W1C66S5868RLqed468e94p8tlZx8iXZ/5dvjzrKOl91j/li7NPlu7nniUfXXCR9L3hphZlWJc7ZeIDD8mYe++X6U88JWPuuU/mPPeC9Ol8nVy12x7y8F8OlwF3dJFpL7/oZOqLz8vM116RyS88J5Oee0YWvf+OTH7+WVn+8YeS/3mPZiWv92eyfMJgJyuQiUNkpcmkoU4KZ4yW6vlTGqUGWTDVSS2ycJpWRgtcBxxDXunqIkmENWVjZWpgKJlr8zRtF0jsrWdkwnEHy2e7bS4f7bCRfLTvltL/ooNk9nvXSemyD5V98zNkbSSs5lldTCsNFSUsXKQxsSbCpuiPUNKxuumss86Sbbfd1m25EwQVAH6s99hgbhC3vSG3CKsZIfVqiqqkUmwJE5MylWKVWi0GyZjWvEVlUtWjv0z65e9lyYbbS+onv5SqH2woyQ01KX6ymcQ22Uhq9Dys5JUtVdNut5lU7bGXLDn1XKntM0RqJkyX6jmL9DheascOl9CogRIa0U9lgMpQvR4jdWOmSO2oSVLTZ2CLUvFFH1n1fndZ9OY7svK97jL3ldel7PPesvD1bvLMSafKI0cfJ4OvvkVWPvGKFD3/tqx+5g0pfPZNWfn4q7L80ZekqutHkvfka7LwgWdlwf1PNy93PyELr7jbyYLLkbsyctldMv/yO53MvaSLzLrglkaZeT5ys8w872b56rybnIw8+RLpc9zZ8snJ58u7p10i75x2mXQ77XJ5/1+XyfCjzpMFf/iXxHb4o5Rttp1UbfYzbVLsKHWb/VzqN99JQtvtIWU7/0ryDzte5n8xQoomzZXUamVtSFnohsQynUihWERCCXb7yBCX7oFGPRggLP0RaEi2qOXLCZjEbHBHp9OTTz7pxrN33313JyyuoD8AglonH+dew/6vAWHDWi+rJJlaqNldqlKsQidQMqqELamUUJ+RqmEPl0VKWNl+H0n8eFsl7A8lvfGGkt70B2ombyARNYnjqmXrNtlYirb7ucw98TSR2QtFlqwSWa5m4eqCzOSKgqUi+YtUOKqWWa2mYZG22wrV7Fq5ukVJrSiQ2JKVElmw1B3Ds+ap+Zgv0a/mSN+77pN//+0YGXvHQxIbMlkS05ZIfMpCiU+aL7FxcyQ2epYkZ62Q2MR5Ep68oGWZqDJE/X1L5kp48DdSP2i21A2YlZH+M6Wu31dS13eG1PWZnpEvp0lV38lSNmCilAydIkUjZ0rRiNlSOGKOFA2bLZVfTJX6d0dJ+sjOktxmf9cHEP3hVlL5g02lUq2Y0AZbSeiHO8rS7Q6QToceK09fc7tM+LivVCxYKclapSaLJ9RCiimJIpqPayJsWv2iKcePH+82taOXmLXFDI09/vjjbo8s5mb/QK0ntC+7VKJlISkTLOjMa4/IMcKqMD1QJZxOSaXmsLbQRFttaoGlJEEHUVlIkuPnSsXFt8nsbfaW4h/tLqkt95T4hltKVAtXauNNJPkTNYW1/bpgyw1lyo4by7ADd5fCVx7XNpq2IUPafg2poR2tkvpYpURi5c4krI9WSE20VspVQxTF9L0xjUM03LLEwqpRQlIbrXHn9fW1mWOoRnr2eF/OPu14efjxe2X6YiVGqE6KtP1VVFcrRbW1srqmUorVkiiuq9Njfea8WamX0tpvpKQ2JMW1+pwKYSElel5eE1ap/0aqkZCTMm1mhGprJF5XJaH6OqlSE7YqnHJSW69pXq6V4XJt6z76mqz+07GyfIe9ZNlWO8vCbXaSBT/fQxb8cl+Zu/efZNbJF8mI1z6U2f1HqQW9UqLlddo+1ucT2oalsyil7VjNSExh17RV+RZhsY/xrhoWk5c2LENgEJSxa7T04sWLpW/fvtKzZ0/37STIygooA8+hZfHb3pBbhAX0QKrQ7VCuwsR9JuxXayFIMGmiVO/MzpdEt35S8oeTZcEG20tok10l/sOfSXSDn0hsw00k9bONJH/rDWXathvLtD/9QmZed6rEvhos6VCekrJEKhOlUpOuVQ3OMgElWcNZhRYvKoeV+r48fV+lurUkDP9UaTu7JFWt8Ys4qdLQarSoDp81Ti6+vZOc99D10u2rITIrUS4L9C0L9F1L1M889bVYw1ikslSL+DJ9pjlZrpKnfkxW6XtMVK874Txf/WWXqBOlqvqq0WO9FKqaI11J33Ism6haNqUVUvHMSzL5kCNkys/3lOW/+r2UHnGClF3UWUrvflSKn39TSnsPkfhifbJIzeFqpWRdXNNV26+RmCMsW/ywL9aaCBuLZiZH8I1fPnVik03QohCRIwI5bZiJa7Qrz6FpPWHXBzRkKJ2PGD22NI7uhTj7M1VoG3e53pm6VJK3PyUrDjhKVux6oCzaaldZstWOsniLbWTR1lvI11tvJbN/vZcUXn6ehD55T2TFIklXl0t9ZZmEImpgxzL7Bse14CRU4tGEatuUhLQM1Gi9UKsmXn0i1qKEta0W0cJTp5oromFFtEDVq7aLakEqUPP6uWefkquuvUre7/GhrCwtktJIWEpVM5fH4qrBI3rUNrpKpVZElarRm5MqlZpEFtHC/C1Zg59IKqKKMKTWS0QrnJQ2NzJpy1SFGMM99SGpGT5Mljz4b1l1dxepe+4pSWncZcxwSSz4WuoKlmv6aTVaoeSuyZBVE0LS4bikokoo9oTW3x7RsKASggWM4eTACaRVMUJiEtPptPPOO7teYgiKOzBNSs9wkLyQFnPat2HXBzQQlhlOkJRCBWkrVVhe53ZFLMZ8K5f0oElS98IHUnDmlTJ01/+TYbvuKSN32l2Gb/kLmbHLb6X4nKsk+l5Pkclzta2qIVRpIavSllUdNYKWHiSkQm8nKp1awro2aYAxH3JNUqfxKdUA6HzRZ1MltRpOSlKVYen3zifS5ezLpcejL0ntPG0fl2mglVqMeV+tPlutzyBctyTEjcUJJtZANDVmQudPo3Dd5L5WUhLXJkWSTdTTzoJBy5K+TE5xejFcKYkVX0tq9RyNm5qhIbU34gUaVKn+lUllWiNEGulvhKxaS+l9PVerKKkVhFVcUA4hyzQ2GXCiXhFrw2ISMw7LHs98qDsINCkEtX200KgQGPJCVu63N+QeYRtyOqaZSyFCy1KwIC9rYZPRlKSp3Uu07bR4tchSLW7vfSajj/uXfPCb/5NXfrGzPPvTHWXokadJ3Qd9JLWsUOJLCyRSFZHaupiwsWKdkj6kL6hX7mhTzoladKod9L28O6mFQSWiBX9NEg5rIa2JiCoZF2ZE3xHRY53WLiNGjJYbLrtGHr3tXpk/aZbE1DqIVkclrgU+ppVFtFY1UW1S4kp83FoSvkSQET3XOH4f0Ya6JmqdJOs1vmpNYElUKqOqqSAdidRBrQ+pLtBEylfHAtWeeZKMFWm9Ua3aWNvDbJAFT/R3M5zDPtCaYErCDC3hIyQ14TobYSEchKVt+sorr8jVV18t7777rvNmgKD4MYJCVgTgFhyvbS/IvU4nzX+EyT2comC0CDnych6m7aK1bToSlWShElbNUamrlgW9esg9Jxwlf9rqJ7LzBltJ5wu6yIK5Ba5clWsBYVndApWFKotVlqgsV1G95xa3o2nQ5mVamsrUmKN3GreWhDBZY8t5ZoF80rlxvTgRllH5y+TGp5+Q826+UT4ZNtQtpi9xnWlm7qddRcR1S8KQZ5AE31fSMLRY2VamR15MglL+EUiolYGqLU14TdO4VpOpMn2O1npIyRrXtramF3kE+RECNUY2sDLAyUZphPlr8NsRkbOEZaYcHwHASoWsRtiQto/qtZZNKWmT5WWSqCqXVKhG6ufMkB4P3Cn//PVussuG28jV594us2eskmqthIvVjCzUmnppQFaoRlilpWm1SrEKpK5QqdQKoSIV0+uYlOp1S1KsYRSqf7su0OuSxvOkzK4olQe6vipnX9tZuvXuJVX6Xjp4yvUZSFiifqr1N3LekvDbg8T7vpKig0jN8lSlaizlZFLThuW/TqgklYSkazpeqxq5QjVuuT5HV1W9EjbhKrgC8ug7ELbBOQPz9y3HjoWcJayr7bVAaNl2pygBCFuhTC5KRbXeZ6+msOTFq7RAx7VIxWT41FFy1MlHyc5b/0ruvPgxyZuhOrNGA63REGIaggk9orhV6b1vsYNrfXk1ZqHShBe2JPiH5Y3XKlazIKrNerz1sVx8weXS9ZU3JRLSdpi2+Woq1ZzX3xYJxd1qwkZGNSOu8tLTdRV2q4o4fckCh0xnE51OCNYFbpkPg7G8sE591bpztp7FInA9yirrRLzv+1yOoMMRFqJiqFXpsUKr+WItgAyv8LW6paUr5IqbrpA9dthHbjr7flk+uVAJpYHQsxzWp2u1SNaoVGrxo7OIJhCBYnM7wurL6JSCrKhmI15zAmErVeyacCj1Rlq97vf5ADnv7IvkvrsflKKCUolqg7m0SN8PCVXz0yblvCXxhM0d5FynEwRFXCdGw5gsm4jTq5hUczKiuU0PJyt4EMZnK9V8VUNPKqqq5Yknn5bf7Le3XHDN6TJn6WB9bq6GNUULyVg9jlSZrDJHJV+Y9J5Qs5ROTvpNIom0G95Ip/gerBZVdW9J6CgNabzsmo5ihlLq9Ae4TlSV0UNHyVXnXCK3XnGdLJw+V+K1UanJV6popcTWVa7tiFhFlUXQwlYnrItA18y3DdhkjvHSb16d1LjSb8AnTNKJqMatXtJRlQjzhNOiSZIxoVnEhP8G0cc0BzzWFrlHWM19JEhYJ3rNFwAYlIewVapdmf3klGM6oQqTNal10r17Dznk8D/KuZ1PlK+Xf6mFarr6HKG+Bkgy2VePY1Rmqqx0dI/rXQosoyX1+h6+LZv5aAe6KNOGXluBFFWqDhEqE66nT5oud1x1o1x3/hUyftAoLfRxiZSoOm8go77mG9I2I+yYg9JeV2E3SKo5NplLur9vmqOOec5B/4vrS2PKzIj+KrrQ3QR/vaeBpNXJyIp4wn435BRhyXiKFHRhxkyaKl+JaMLa0ZS6cS+eUqIxyK4PxfW/hKq3eFlcvhowUc4+6li56rzfyfyJN0ts5aMSmn+zROdfJ5E510pqyQOSXvGmmrKjtCAuU5NUtakSVYOShGqyBOpWw07rO4L1RYuilUkC0QolrtrVBLd5CxbKQ488Ipddcbl8+nlPiSohQhHW5OJHf6/+Jra+iavfZkXvZ+K2bpJCTWpV56o8rVQ0upl6UV35HXTyxdQ9moqqhCWiEk4qzdUDQ64I59QzkNzkP0jLRVACyOLUoZBThCXja/V/jDY2AnfjgpQ0pqCZuJKnpUYJwdfW3UOUINqj2p4sHL9Ibj/jdLn3sr1kxdjzJTzzcikdcZxUDT9aKoceLaFx50rdxDskvqS7pEumaynUlhus1yDdGCcDwMxnpgRb6WpJtMSztUwKzdTEHVmev0pefKurXHrd1fLGB+9mTHr9XVWqwVCg1XE1vbVywL05icKsgMb93oJN6waKVF26wVn9p+mnMVftm1H26N6Qeg7pGR/P1kaD085YMgjnBIV/xBP2uyHHNCzalS3Q+BQzeztBWhXaVahA176CHFpEnHqAYVp8KIhxJV60SkoXfSU9nztd+j33Cykde4BEpx0ktWP2kNDI3aR2+G4SGr2P1I/9k4SnnCfJBY9JumKoEn6Zljx9XiuElKqZmKq+CDYyJXFNAk81Pmmnmf/zfnFJpbzfvad0vuE2ebPbB8yRl5hWENV1MXdeWx93Ghbt3KyoPzfkso5C2zzTtaRmsdq2iXTEfSibb9RzBzqzswcfOsEtklRNG1f6Jqq10ijVXClQ/6slmSjTrNBqNcWnOKMun4z0TjTpTHDPQCOgOSvpOtd3kNKwmWpoUwyZJMG1TTe0HSdwxy14D3d7tr0hx9qwWji1yGREM1QLDxmOsiJvEAoeSjbjgGqlzqePk339V8jqwuGyeNSpkt93M6kZ+UNJTNpIZMoGkp64gSTGZSQ1fgOpG76dhCYcKckVD2gpHaIlRJ+PhbQw6qWGX8PcSMpYC4JGpn3ZktTXxKXnp4Pl6iu7SNdX3nOKjXomqgzhSOe1q3cIrznRRFAv6yy0XVWnaypXabpWagozxsoiCBYucCcjEJdPosRj2gSpV40cWalpM1vbr6MlUTtGzxfpzSJlo6Z7qtZZQjHND9fppnGt1SNhUAnwXv0FKpBVw0oVqijpk3WNpOPINEMjJW7MYuIa4hphERdawzOesP9zNENY7jQQlsKLRcxFOokRB2EZoFilskJWrhwky0eeIxUDdpDwiM0lOe5Hkp6wocgEJSpkVUmr1I/cUqpH/V5iczqJVHyghXCqlq4VWhAqtH1ZIxE0bpJC2bykE0WS1ILbkqTjldKv1+dy6YUXynNPPq51jMaXXuhEvd6vl7gyl3P2TGpOUkk1VPVHr6ukXRcvY8CqYVPVqgFrVHPWSb1aKXWatnWa0Ag93mxPlYhoDrCnUyRPb8yUZEE/CS3WtKoZrGwcr+k1Q/OBeWOFGla5tnFrpCauprS2e+mPNtMZWrl5ysxDTkHaCj3PEBFC2uobCIhG5Rp3ph/iZoTlmvsc2ytykLAYZEh2wmYu9B+ZqOZapvuSUcICvb9cFi3uK6uHdZJk//1FBu8sMnRbkRGbiIzRpBrdIJxP3FzqRu0o4elHSqrodkmH35R4+AsJ14+UUGSqhKITJBb9rGWJfa6F54sWJV4/Vob3e0nuuOFEefPFGyVe+7UkYguVpFrQU0v1N6i20qOk1SxvTlJaGSkRWhR6dWOq01oS5uGGlUaRBr9aUYhWeklV8TTB4YG1MlyD1on6DWsFVTFHYvN7S+X4+yU++xJJLu0s6dKHlbjd9P199KFx6nmuCpM10eJKSD2DWgjnjrkN+cdCAYjJzhG2rzOkZF9i203CtCj+mEPMQgD7QoALzhWI9oUcJizdTi0TNhaFrN8QNplcLvO0UBWOuEqJeqDIkJ1UthQZpmYxRB3bQFbOJ/xYygZuJcXD9pfw3Eslnv+YlK18VZYueV8WrugpS1Z9JqvzXmpRigtekfKS11uU4rweMmH4i0rWTtLzgzulZOUAKcsbJHUlo1TZTZaa4hES1WO8floL8pVqu7wWJRnNV6JppdWSRNQSidDWr1DNX6oWQplq23Ilh5rIatqyK2IsrBq9XgkRUjKHNG3DavaGFkmqeIzUz3pH0+taKRtwmIRGHCXJaedLetFdki58VZWnkjY+WZlI5cNW7fT1k58ZwjYYRZpvmWNtbZ0joWlQ07AmNvEfQFRr0wbFTOT2hBwkrOvuUGF34iyEbRBH2Ahk1YLlOlKK1S1fFiwYJEWjLlWS7qlk/alq2Y2VvJpMIxuIioxSmfxTqRm6ndSMOUjiS68UKX9SoqVdpaLoPSkt/1QqyvpIXX7fFqV6ZW8pW/xpi1KjhXnhzGuk54d/lT6fHiX5S26TlQtvkbzFt0rRirukYGkXWTz7Wlk465pmZdHXnWTFojNblOJVF0p95bUtSrz0KbUm3pZkyZsSK3tNwuWvSajiVampfE2qK96W6vL3JRHuo23vgWqx9lOC91DL4w1tuz4p6ao7JbnqYonPOkhkoKbfIJWhW0l8xF4SHXekxGZeKqllj6rW7aEkn6L5wXIIJb/+YRarQfytFYIZAmeISXvVNCckDpIX8O2i4H3I216hqZZL+G6EjTchLOtkli8fJWWjL1Oi7pYh7BA1hyHs8AYx4k7aQmJjd5bknH/o43drgGrapXvrO4arjFWZojKjZUlNVy01tWVJ9ZHZM66VFx7fQ7XsvlJZ9JCaw69LrPopqSt7VNunr2kBfVulW/OS7KrP3NGiREM3SVXxlS1K5fL7pXLhs1K+6CkpXfK4FC19XAqWPyb5Kx6XVcuflVXLXpIFs56WxbOeleWznpQV0++TvKk3yOqpF0nBpFNk2YjDZPmAn2s6qsUydENJDtxCavvvqpbKQVI68hSpmHarVC2kIhipebFmwkJCyGjkDAprYNm3ydqxCEQ1TYt7eySulrxcAoSNNUjmcx2NhEUcUfVaHR1ho7Rl1KxKVasDZnGFFBXOlNKJZ0lk+KaSHLOhNq1+IEk1heNK1OgIPap2jY/ZXsoH/kpKBh8lkZl3ipR8qWbfbNUMha49SGdWgs3F69YgIRXahC1JJCRTRwyTe67pLI/colp14Xw1SWtUc2k7rbZSzzXurEEN17Ygej9U3qKka8skVVOyBsmXZO0SNcXnS7J+rmpTbU9HZ2mbWiU6T3/zQonVLZJ4zWKJV8+TeNUMSdSMlURdf0mUvS/1Cx+W0klnSHz4ryQ9+v9Exv9RklNOlPjMyySx4B7VwK9Lqkw1c5iZZFSg9S4HyUPMYiMuwkbukI72KTsi7rvvvvLXv/5VPvroI0fIoqIip30R1syyuP2ggw6SO++803313ojc3tCxCMt5Ut0SWuOm1C8rbySqGkY1LD2PUikV5fOlZNKZUjvkB0pMTZ6G3uGoErZ+2AYS0WN8zI5SP/pgiU67SFKru2q5mqjBrNKSpBpbS5YbblGeuLGJNQkKviXRIGeNmimP3PSQPHTjg7J48iLnxihHqkx/HeMo+KPuaU64T3zWVbQtqHa/smW1qrh8jcBKTVQWza3Qo16ntcJiqEbbt6Jt3sz4NPOuJ2jl8qXULnhC8kadIenxB4jMOExkyelq1Nygv+ExjadaKLG+6l/TMsWq4wxh0aXZCMu8cDQkhO3Xr5/bypTdEc855xy9q34aNCkm8IIFC+Rf//qXbLHFFo6wmMYQ1jqf2hNyirBKQ81U+4OyEDhA2gYNC1kZnE0zIJuO67VmXLpOyVwt4boCmTPsShn5+uYyr/eOUjf9IKmavL8UjtxL8of9Wqqn/EWKRp8g9bO6SGrFuyI107V0aAGNhZWoaoxraQqp1Knd1vhZjXWRREymTBgnd9x6s9x1+62yaN4cSaoWTyZUk0e1PRbWeCfUSkhGWxCNkJX0dRJNSeYJ6/vcLH4mBjfULHQSpdPqzuCxvlPVr4rWSFSEqVWazLNU8w6TUMlnash8qCTVtmp9Pw1vtN7XNHTbAzC0pmlJ7UBXM4PIrtrNdD+x3IA5XZl5XZnvEiEzZ86UCy+8UDbZZBNHXPuuLsBsfuedd+TAAw908uGHHzYO8dD2pb0LgtqWSoBw10cNnMOE1Uxx2dxA2AxHHWHVKXNBL6ErFFrI0hCuRglQJiM/7yTP3LipfPHC7lI24ziVY2X1xCMlf/wRUj//EimafJ1EV3RTK3qcagbVNrSF9F9CyxiWLktlQ6rJGZpYd4nIhMkj5KbbrpYud98gS1bMkYRWLoyBppUokVil/hSWM0Ca5gQi8ZvXUUzNZXiUSccGcOrKN+5BcTNAlLRp9pKcq8d5erR9O9DODOOwKxT9CJgc6p+XuQBV3IsJCHc0In4wMTLbvkA+Ng9/7bXXZKuttpLddttNBg8e7NzpHS4uLpYrrrhCtt9+e7e74uTJkx0huc+RMJoSFDIj1nm1PiHHCEt5orsJSen/RljqaM169eDSH3GEpWAgWiC0YKVi9RKrr5KBPZ6Qa87YR56/6zipXvKqhPNek/r8FyW08nktex8qRz9TE2+KVsVaCBO1+jg1thYnFXZRqdGw67Qi+GYSx7pIRMZNmiQ33naXdLnnAVmyKt9NBwxr7ZBQ6yCkmj2ucbdfnVXUH1/WW1dhkQJ1nDvy+zQejHdnhHdpOmiyMhWyUVRTJtLlKiv1vrZrZZH+ojKVchVmS7HFO6uR+e5fJgzM3ca8cjlHLYEmx/7XNrcTrRkVEA2zd8yYMXLwwQc7s7hz587OJMbk5WuAfAlw6623loceesh9T5Z7kNFISQcV55CT8KwiQDxh/4sgaSFqRjJk/YawGXEZgEcjLOUBN82clNa0MTWTBvfqL2cce5rcdd2NEq/StlSUtpm20yLs5ETbTdtnKdUIzmzTwqyuUQ2CzSnQEwz712gBZF+LdRZ9x+iJs+W6W5+ULve9LEvz69xmcmwG596pUeCa8+YFy+M/aPydBX0PTZiSEnW/T+OivzYj7FkM7Zw+bxDO+YOgK1XmK+2WuzQysQUBrr9e40oPMOsnWDtBFmVYS2j4xFxm16tMDzIkg6xoSDYPv+6662TjjTeW/fbbT0pKStz9999/X37729/KAQccIF988YXTutOnT5c33njDyeuvvy5du3aVVatWOf/c54hA2PUNnrCNhFXiReMSqwvLiAHj5KR/nCOdL79B4nW0EWu0fVuqTbcCPS9x4hYMuGk9hMl7MT6TWvDYayGsxReztTWkXsZMnCA33H6X3P3go7KqqERi2uaujYX0Xljq4qqd9Jrz5oVhLpoI6yZx/aExTa+YVlIx1doxDTeq8csIS+qUQJqubOTvRP1GVPtH0rUqpUq7fE2ZYkc9E4hqfW9GVrf4SYV0zfyHOYwvOgYxn+mQyuyAiECu8vJy6dGjh2y66aZOy44aNcoN67BnMZ/xuPbaa2Xu3LlSWFgoDzzwgGy00UauzbvhhhvKdtttJwMGDHBk9YRtQ5C1EMfk24TN/GUlLKKmbEpLWKwuLqOHL5YTT7xdLrn0AeEDZ/RNxaIpCYfCajKr6RbRto+W3IY+Efc860O11aTBlOu7C1SKvgl7HSSdrlCT+BO5ucsZ8sCjV0hJxQyN+iqpZ0qiEiCeXqY/h70baQs2J3yPYN3/EsoitRgzor/dTUc04Zp0UmXILEdGzNj6ik44th525NUkpxVqXVWcozuhIytzjKhkjdYJmXxC9N0ZXzwFxfnEpVYYatpiwnKEaLNmzZK99tpLfvzjH8tdd93lOqPQthD4rbfecqYvbVo06x//+Ec3DHTooYfK0Ucf7b52D/k9YdsQ5G1rEHbC2CVyymm3yYUX3y2l7BKYUnPZrS/TkMhEfTapflNa2rTcONJC2JRqs0S6ypE1nlZNwDvWUVhMMGrMx3LDTWfKAw9fLWUVszUuBRKKLNV3Fur78txR0lpBNCulDb9+3f6Sml4JbZgmlKEJTYdkkkLdIOqW1Hsx0jCsmljZ6Parw3RXJka1XRjRhELXayo54ZzWL5NI48pQNhag/Uoe/SdhyVGMbDrYMpuZW6eQy1NFfn6+3HTTTc4s3meffZy5u+eee8pvfvMb6d+/vyO3CcQEhBH8kp0N+XjCtgHINviTESOsFgL943+EnSD0vwwhXHWunhEISyGrTcrQkSPk2DOPldMuPkkWrpyiZuBqqYsuVW+rJU57FqaiElAPTVWFhuMqAtRNK0iqJilj+4yTWy69VR7v8oTU5qt20cZevFRfxLuxFHl3pnGZXYiX/c51EYZttF2dMUlpR9Lz2zAO667VZGU1T0Jbu5q2JDVrXTNbylRr0pToEY2/rEF4Xq/TGl66XD1Xq9DU0Agzu8W90/3T5zL5aj+JLwRAKshHGxbSokF79+7tTFy+WkfbFW3Ld2Pnz5/vNDFiBAecM7xjYRg4h7BG5PUFnrDkBxIk7IgRcupFp8gF15whc5dNVG4WaZuMwlWkhbBMn9cig/0GEYKkpSQZYVXrZCPgd5VEZVxGfjFKbrzoJnns9se/IWyJhg9Z11vCqvbTZ/5bhDXdB6kgLoC8c+bMkcMOO8y1TRGI26dPHzeF0dbI4g9NaqTkGCQm92zIZ31DThEWsNGaCRnRnDQFbnzVmw8yMVZ35tlnylnnnCELFs3Te5hH1MCOjRJhRQqZSTDZxEFPeM86SnVltXzSvYdcdcVV8sqLr0giqnHgVkNlE4+pFnbk0N/VgrQOCAeqIKQFFDLJpI2+zMX72+Ba49jSc04gCJI9vriaGMgHCMsR8q1YscJ9xY5OpQ022ED+8Y9/yNChQx1hzQ+ENZJnQ3NlZH1AzhHWEntN0hS4WW09bdo0Ofvss91HlhYuXNh4DwF0TrRV7cu4Ybdu3eTyyy93nSW8l/gQT/stayO5Bn6/5QfnkJDfiWZkrvDw4cPdBAo0Lm1U/HLf8rG9posnbANwIyPJ/BkzZrjP8J9xhmrYBQvcPdwpDMDI0hZYvXq1+9jTpZde6qbY8V5Ia50jALc1Sa6BvLJKk3PMXRayczQ3yyfrRbY0a8/p4QnbANwsk7/++mu54IIL3Je9GbvjHjW49Sxme/77wuLTnKAtnnzySTdX9oMPPmgsqBQ+CuLahIHkGiyvzOKw/EGoWBHSCHeEtOJo/jkSRnuDJ2wDcLNCQI/iJZdcIieffLIby+Me7lZ7tyaCccomaPj777/fVSBMDKAg4m4FcW3CQHINEA4Skh7kjYE8xB2h6UIaBX8/z1naBZ9rL/CEbQBuRljWT1555ZVy3HHHyZQpU5w7Yhq2tdA0Ttnkq6++kttuu82ZxH379nVaw0BcTWOsSXIR5AmEhZykA+nBOUf7zZxDXCM2zxhZ22O6eMI2ADcjbEFBgZtATg8jk8qtlibjWxOESUFrScaOHeum1dHzOX78+G8RlueJG/44b0lyDeQVvxtwNGKaSWz3OKdta19ht7TgaH7aEzxhG4CbEZaeWXYo+Nvf/uaGBCgI3Icc5rc1YO9sSZjjSg/xPffc48zjYKEDHZWwwTY8aPo7jYy4kY52jyP3cCOv2xs8YRuAm2UkC6Bvv/12OfLII91uBhQO7nMPBAvAusDCpOAgnCOQ0I6ffvqpXHTRRa7jiXmw5scKJOeEsybJNVgaAdLC0s9glSz3gr8fPzzbXtMk5wi7NrBC3JwwyP7UU0/JMcccI++9915jpluNTuHgujVAAaIzy8xtTDhWnlCoWJj94osvug4weoitEBIPdlIwWLxbEo/cgCdsFoGwzz77rPzzn/+Ut99+u1GLQSLQ2oSFiFYZQFjIiDuzdughZqcE6yEGVCCm9YHFuyXxyA14wmYRNB6ajV7iV199tdGEgqjACLyusDARqwwgLuFDSmZcXXXVVW4MlrYshOUe4L6R3OLdknjkBjxhswg9jSzNOuGEE5ymhRi4B8nSGiCcppWBXfNOloSxCyA9xFOnTnVupmXxY1p2bcQjN+AJm0UgwrvvvisnnXSSPPLII//RgYG0BqgAjKCmtc3ctt3+IOwTTzwhK1eudH6JG8CPJ2zHgydsFoEI3bt3d3vZMpyCxrV7raVdAWEZQY2wpsXZk+jpp592EyY+/vhjN47IPTOL8etN4o4HT9gsgkb9/PPP5dRTT3WzjGjTGlGNUK2B4DuNuKbF0ah0OGEOs/IE7cq7OQY7n4JhtCQeuQFP2CwCIdi54PTTT3cTKGwtJbC2ZmuCd5q2NK3Lsr477rhDunTp4tbn4makDU6RxG1tiOuRG/CEbSIUfgjBvF0I26lTJ9eexB1SmTnamjAS2vshIVtxQtYHH3zQLUCAsLw/qGGNxMH4NyceuYEOS9imwA3iQALaiwyjsLyOTh+2y+QeRwCpWgu8FyIyu4pweT9ugwYNcub4Cy+80LiInnvBTicqEo4eHQeesA3AzQgLKdjXll0nTjnlFMnLy3P32LngvwGIakTk/VzzRTamJNLxtGTJkqyExVT3hO1Y8IRtQJCwHNl1gimBzHZiQTtuEKQ1wTtNW3MMxoFx4BNPPNERlg4ou5dtHNaj48ATtgFBskAeVsawrI0VO+PGjXP3rGOotcC7ggQkfN6NvPTSS0678xkJvnXKfdxpsxqC5x4dA56wDWhKWL61wu7xRxxxhNvMCzcjDdIaMAISLsJwkpGYxQfsMsFqHUxx8xN8d2vGxaN9wBO2AbgZYTmyJvbxxx93hO3Vq5dzA63ZU2wktHOIah1QTNhg1wvW4wZN3+AzoLXi4tE+4AnbANyMsAg9sOxWCGH5CDBkwg/DL62p1QiT9wHej8alk8t2mbAtaizOFk+DaWiPjgFP2AYYEYywEJT9gCHsm2++2dgjy6yn1iQI7wpOhKAyoFeYKYksop89e7Z7n72ToxEcoJFbMz4e6zc8YRuAm7UJjbjMJ+ZjwPTUsi8QfiByUOOtCwiHdqtpb9OWkyZNckNKd955p/sgMW72Po5BDd9acfFoH+iwhG1JIATkocOHbWJuvfXWxjFY7kNmjusKwrFxVd5pbdUvv/zS9RDfe++9btKEh4fBE7YZQesxeeGQQw6R884771uTJoIabl1AOEZ+NCXvBLSZISz7OLGRuIeHwRO2GbEVOxCWsVimJeL+34BpdEgL2O0CwjJ5gk91eHgYPGGzCASCsCxrY9cJvtbNp/aDnT2tBd5HuEZWrhnSYWkfGp4N2Tw8DJ6wWQRth3lKhw/L6yAsM5/oITZitRaCpjCg15cVQnyIiy1WGV7y8DB4wmYRCARxMIOZGnjUUUe5LwAwoQEytxZ4F9rVCMs1GpVVQrSbWYBgnVIeHsATNotAVojJkXWxmMWfffZZ43dGWxOEx7t4L+RcvHixazOz8IA1sf8NM9yj/cITNotAIOu9HTFihPuKHR9TtvWnSGuBsGgzI2wcztamf/jDH9y0RBuD9fAwdEjCrgk23IIwNZB9gZl1RBsWmEZcVxhZ0bIsmid8vjRw4IEHys033+y0rflrSTw6Djxhm4GRdtasWXLddde5qYK2jUtrTQckDHsPbVeObLy23377uZ5ixmCNlC2JR8eBJ2wWGBHQfHzcGfLQCYQGhFSt2Y7lPWhsNCxHdvrfe++95bHHHnOLACwuLYlHx4EnbBYYKRG+b/P888+7cVHasIzPtiZJ0LDWK43wnn333df1TrM3cVNyZhOPjgNP2CywXmKIy4QJ2pXHH3+8M1vNLG4tUCnYHGLCpoeY2VXMY2YYKUjM5sSj48ATNgtM40FaFrL37NnTfY0dE9XI1VrgHbbvMVvBHHzwwW7cl10TISyEbkrQpuLRceAJmwWmXTmiVfv06SNHH320G2bBrbUA2agYMLUJlw4u2q/MI2bSBIQlHk0J2lQ8Og48YbMArYbGM8IyeQINyxfkWpMghMU70Nq0jdk7ao899nB7ObEmlk4u4hEkZzbx6DjwhM0CIwJkYjID61PZ7nTs2LHO3UjUGrB3QVpWB+22226upxhti2lu91sSj46DDknYbIU+KBASLQth0XIjR46UY4891n0yg50nuN8awBy2yRgcmU21yy67uG/qMAbbWu/xyB14wrYgEAYtx77EEJbNxVkQ0FpEMnMYMA770EMPya677up2a7S9iD08gvCEbUYMdPpMmDDBEZYVO61JWMKx3mjCZTYVJjGalmtrS3t4GDxhWxAAafjc43HHHec6n1qTsIAKAXOYSRJs+IaGZfM3TG+IzPs9PAyesFkEQiKcQxh6h1lix15L9Br/NwiLCfy73/1OdtxxRzdpAhOZe17DegThCZtFIIqZo5x/9dVXbsogpiqEbS2tx7sIi3YyUyB/85vfyA477OC2hkHDWhw8PAyesFkEkppgls6dO9eNjb766quNk/Txt66AkIRFO5Z1sEyagLCYxMHv6Xh4GDxhswhEMjIhixYtkquvvlpee+01N8EBguFvXUHY9BIzNZGxXkzinXbaqVHDeng0hSdsMwJhrQeXT2fccsstTsMaifGzZmDOmuD/288QDhP+mYL47rvvyv777y+7776bfN7zM9XkqmEbn/PwyMATNosAtB7mL8Rl930mM7CQ3fZ1yvZcUFJpNaelyElCyiQpNUq/sNJP27/GXZVkIi3lZTXSt/8A+ek2P5HfH/Jb6Tv0MykLrZCYPpeSb3ZU9PDwhM0iANMX7Qc5MYn5zg3tWFbvYMZaL3JzsraETellVWVI+g8YKNv9fFs59IiDZMDInlJev1IJW+4J6/EteMJmEQAhISuycuVKefjhh91YLOtjIfKaCJtO6/NKUATSpZW2zsTVe0ZW9aIaVrV5bb0M6D9Edtnll/LP44+T4aOGS1WoUuLpqD7hx2E9voEnbAtiwzpMaqD9evjhh0t+fr5r264NYVOqI5FGsrqXfyNo10Q8rYQNyZe9+8seu/9azj7nXBk3YbzU1tcqYeOqqRue8/BQeMJmEUiKZuUIOemxZV/iQw891LVncc/23H8IpFZRdvPSb5EVJJNMTUxo+DXy0YefyO67/ko6XdFZpk2ZJeH6iCTjPN/g2cND4QmbRSApkxkQ2rIsMGd/4j/96U8yfvx4dz/bc03FWbMmKEokwD8qBcIqL6+Ql154VX6x/S5y03VdZPaMRRKtV+2qzde0t4g9AvCEzSIMtzBdEIGw9BizUuevf/2rfPHFF437Oq1J1BL+Roys3FMGYyYnlJHReL0UFRfIfffdK1ts/lO5/ZY7ZP7XiyUGYSPq3W/87xGAJ2wWoX0KSW3rFnqFGYtl14k333zTDfessQ2LKctuMkiAsJA107aNaBu1TqLJaslfvUSuvaGTbLTRRnLn7V1k8dzFEg/HJR32hPX4NjxhswhAi0JaM1vpKWY+8dNPP924ACDbswj3eE5iDVq2wSTWu3rQtrFEVSJ6u07CqWpZkb9ILu10gWy08UZy911dZOXSZRLh3ZA2mYmPhwfwhM0iwMZhuYZ8y5Ytk8svv9x9soNz63jiHgQ1mFs0EpV0VN2NrLjrX0z/wkpWJJQOSa0SdnH+QrnwqnNkox9tJPc/cJtUVuZJdXmexCIV+qBXsR7fwBO2GcEURrNCRsi5atUqueaaa9zkCSbq235LkBPh3MAzPC9oR5V0gp5nJXEqJpE0hDXRSkH/FiphL+58oSPsI4/dLVVVBdqGLZVEuFw1rJ844fENPGGziJEQcIS4bMb2wAMPuJ0n6ClGA+MXMiP/SVrVvMmYJBNRiSlZI3qLzWDqVJjWX6mi+lNK9DWTlq+WC2+4UTbabCO5VwlbXrVS75RJIpmv4fCEh0cGnrBZBDLa0A1HOp3ogPr444/drhD0GNt9yIo2RcxMtnck4pluXm3tSkTN4tL6pCwqrpPJS4pl+NcrZNTcPJm6olQGTJstne68WzbaYhPp8uDtsqJwjiRSRRoKUu/C8/AAnrBZxAiLaWvDOpjA7BX85z//2REWd7Sqmc4I56aZQUrDYgCnLiayuCAugyYUy6ufzJN7X5oiNz4+Vu54YYq80GO5vNZ7hXR5upfs+5dT5YHnXlG/SyWSZP5xGVRvCM3DwxM2q5i2hLBoV4ZxIOTSpUvdpyCHDx/uZj8ZSYNaNmga8399PC2LVlZI76Hz5bFXRkinu3rLWdd/Iadf10fOurGvXHr3ULn3ta/kkTfGydX3vCqv9+grhdVlakKXa5u3SJvAXsN6fANP2CwC6SAr55CSCRQQl5U67MyPacz8YrSskdRIGzSLE3rIL4nJwJGL5IlXRkmnLn3kzGv6y2nXjFOyzpTTrp0qJ1w5Wi6/b6bc8exX8vQ70+T9vlOlNBSWunS11CVKJc7sCQ+PBnjCZhEjnxHXSMtCc3Y1fP31190iAIZ9TBMjnNs1lI2l0jJncY10+3iy3Hzfl3LuNb3ltE4jlbBfyxnXL5VTr10kJ101W48z5IJbR8tzHyyW1z+bJsV1UalJ1UooVa2kV3vaw6MBnrBZBKKatjQi0oaFsL/97W/lueeecxMp0LpmAjd9hvZrKJmWMV+Vy2OvDpVLb/tEifq5nHTNUDkBzXr913LqrQvktNvny9+vGCknXz9Irn54uLzac7bMXR2RknhEqhJRqU9ouNosTjCkq7UALWQneh5XN+59y71ZWfc/TR0NKQAu9Xc6YWaX/u7Mtd1rIg1QX06cE/+ZQ/aIf/uBBuF1WDD8ds55baO/gCRjmjeNiyj4Bcw008pYtDmTjjbmnyF4Tl5SWZOfgKM1g/5X8IRdg5BpCGC3CZbYsTaW9qyNxZKRZCKZaQUgoW7lWqL6TCqXLs8OlLNv6S4n3dBTTrhpiBx7ywQ59rZpctJds+TY26fJoVcOlDPuGSvHXfexPPrhLPlg2FIZPHOJDJ+5WKbNzZP5S4plyapyySuqkZJKJXIoJSEtM2EtzPUatZAq4Xq9juh1VMsbE6yCEtG41CVCUp+ql4j+RbWwmnAVToe1zRzRq8xf8H5GMn+JpFZGWoGkk0oAY0qDODe9l6lZkOB9Ej0jmjRu8hfCLXePCziAMYEw9GzCNffcAyoNBKayoueduSmcs1TRzTHBb0AS9Zo3mlApjVMiqb9F04EZZlGp1d/9zVayHMk7O5KH5Kd1LgKOXAfzPXi/LeAJm0XMDxmCkCEc6XxiPjHbxSxYsOBbC9nxY5nPNYQtVfYMmFIu9700RM67rbucetPnqlGHyb/umCjH3TpJjrp+jBx+9VA58trBcsFDE6Tz02PlxmcGygs9xshz3QfI8+/3kXd7DJdPe02QL/pNkf5DZsrwMQtl4rSVMmseRF4l8xavlIXLy2V5fo0UloeVzAklcNqRF4HUoVhKKiPVUpOoc5M1olqSY8oAJkiG9f86JXJdMqJ+4xJOJZQIek9LP/4ykiFuLK5PRVU7xbWdDjmVlCzXTenRBPe0ktZIzWqj4P2kivFJTzWtOFFpSloT3LiHHyoGfQCJqUT05VGVuLonuUeA+G0QN9OMcz1QWdRHQlJTX6UkV9JKvf6mTP4BiGfa04Q8NSFvLX8NXFOJ81xbwRM2iwAyg0zjmnMbiz355JPdDopff/1141xjgD8jK4CwVfG0TJhfLc+9N0ouveM9bau+I6ff0kvOuGO4nHTLMDnuhkFy4s2DVQbIJQ8Oled7LpE3+82TVaoyV9ZGZGVFWOaodp04fYmMGDdb+gycKB99OlTeeKe3vPDaJ/L0ix/Ik8+9Jz16jVYyT5fhY+fKpBkr5OsFhbJ4ZamsWF0pecW1srq0Xspq66SSzqyY/hYt3E47aVRRYpyHNK7V4bTUqINpbyZ7mJJDnEYMSGYBvnJKK4SYkiOqNYTTdBoewm4a39xnuiaTUDBGv+FiY/EnTJLSxIiHB+7pf1p9uj/VgVrtaOWioWTsAm2K6F9mdw5enjkkIjFXeXCOW1SJFVYhWEd4zTuIarD8Q3AnzzlSMZP35LeViSBx2xKesFkEUGti+gAyCe1Kpp1xxhly0UUXyfTp093QDmQ22LMcE1oY6vVyablIjyHz5aZHe8qpnd+Skzp3l5Nv7i8n3DhQ/nltXznu+n4qveTcu/rI/W9OlPcGL5ICtW9rNBzmOCmHHKEwfWs1OlX1osRT0ZtO9HzuohIZOW6uvP/JYHn8mW5y97+fl/seelmee7m7fNBjiPQeoBq6/2jVzjNk1oI8KSitlfLaetXGEX0+JqU1cb2OK1GTElYz3ogMacP6bnetQtnnJ7qf2XBsFO4F7jcVR6KG8yBhoRi33H/6fCNZtQKxRirtT/4gq7VAISrWAn/of61e9Q4PagC8hNpFJRXFGiBimVeghAk6rPlTrUS0PAbkbzA/mwOVtFlXbQ1P2CwC1pWwzozScwj39ZJSeUvN3Fse/kAuvu0tOeemd+W0695R6SaX3P253Nd1vLzx5Tx56NUvZfDkRVJUp9pDn6tXEzWiKouCHRTapRC4JixSUZeUitqEak4lmpYfNAdSGYrKwmWFMmbiTBkwdKIMGb5APvpkrDzxdHe5tcuLctOtz8mDD78r3d4dKoOGzpNRY5fKyNFLZc68Kimv0vdoWCYRfWlFtWpeTY5gPHifM7n1ok7vqVHg2tNcEz/u4ScTr8wzEFWLuhNt/ek16YTOVGK5FOPI1jgxJxARDRrRs3r1FVKp02frpEKlQK9XK3EL1U+x+ijVO0z4ZPIn1Z3q4YhqRdWUtL01S6QeKyKk79eI1EcyJq2ZvZCQfA/mI6REzEQ2cI4b+W/+2wKesFkEkBGWGRyDJjGLANZkEif13BVWPS+rT8nUhZXy8cAF8sTb4+XWp4fKVQ/2k8vv6yXXPTZIHu42VR7sOkz2//uF0l214eLCSglpAauNRVTzhZWQWmGomg1reTayuMKvrwqKEcKJxiOi7ch6LVS1ahpWKamravWoLC8pD8mKvJDMnlcp4yflOTJ/2e8r6d5jnLzSta88+Mg70uWul+S+B96Qrm/2VULPkZmzy2XV6pAUV9RLaVVUtXtCw+Ud37z/W9IQR4snaWFt6jUR1oRr/iBsWEWpJ7UqNe5Y3kDYghYJGw3XSjKmsVBti9leW6uEV7PBFDh5Bkkt7xDMYDN9DZQBKmgIbuUC4dkgkf/b8ITNIubHalcyhCNa9uijj3ZbntLpBIkto/FDRto1x7hqSCSqdliVFpJlq8MyfmaR9BqxSD7oO0s+7Pe19B27QoZPL5RHXvxItth6Z+n+RV8laLWabmFtb1WqaEtNn0fTOQtR44ZQpBnnjSopw0ruqJ7bfe5F9f110ZgSq07Kq2tFm7AS1tqDviKEMhzWSqBW1WFVdURKtJ27Kr9O8vKrZOWqMlmytFhmzS6VseOXyoCBM6XnFxPklTc+lade6iYvvvGRvPlhL/m491DpN2yCjJw4SyZ+tVCmzVkmJWpeV6qmrUbj6jtC+i5n1muc3AIIFaiE1Csl2fiVPSWVHhpvTceGI4JbRCWkUq1SrlKiaVusUp5WAjWQFyJDaDrGoLdSUENXmsdCEo/q0xCKtNFDXBMJCzmsbfmyCtXVmk6sb7Z8h5AQlmtIS6WM5g3mMe4GT9g2AIm/tkIGIYDMZJuYRx55xK2JbWlYJ0NcPnQVVtNLzWslHR07pWruLisJywLVVmNn5Unf0fP0vFZe6tZTNt5iW3m/x2dKIgiruiRZ5cYK0QYQEo1JRwlkdDpI3RP6rrgTLYx6RLM2nqu/iMY9EtdirGVMD46sHLlWPn9LvuVHz+sxuStjUlhYI6tWVciCpXkye8lymbVopUyZvVxGT5kng0ZPl16DxkmPPiPkoy+GyEtvfSIvd+sh3T7uI5/2HSGDx0yTSbMWypylBbK0oELyK0IBwipxVLBCoJj7TQ0CJXCzFU6sbirV31WoZFut8SvTc7XcnS6tVYH8bApL+7YhdTQP1LxNaUikiRI0oW10PdX0DcvEKTPlrnsedBbTo48+6maukWc2DZW85fMpl112mdtAnj29LL8hsI3BW363FTosYZvCSEYGQD7LCGpb64xAq/KFuZdfftnNdOIe7pZxwcxzx7SGE9N2USTsOqGS6hbVslSh5mRBWUiGjJ4qb33whawuq5KXunaTrbbbTt54u6uUleVpWBUahravtBjS/xlX8sdpzyJ6nukTzYhWDU4zuaKaxi1zjXujaHQQOl2U907LOGI2iOtMbfAT9Ov8NQimLZpSLXypiiZVm9ZLXmmVErFEFqwokLnLVsm46bNl1OTZMmz8LBk4apr00fbz5/1HyydfDpMPew6W9z8bJO9+Pky6fzlG702RUZPmycx5ebIsv1JKK6NSqyqY9qVa71KlL4PUEBJyQtLRC0rkhU/GyCfDteLIS0ihMrpa3etU6jXSYa2tEnp0EyVcHuhv17SPR9UATyiBNWVq6mpk4tTJctsdXWTjjTeW//u//3PLJyEqM9rIU47333+/bLXVVvLPf/5TZs+e7e6bSYxQTjIVs74nC3DHX2vCE7YBuEE4ywjOyQxqU9ou1K7jxo2Tn/3sZ+6zk3zPFcIGtaqBc/YlFqYVJrUmVrM2peFSiCBJjWrZ1cXV0vPLQfLok89LUWm5PPvCC7Ldz7aW119/XspKlmnhKtXnK5VstPRa/oOya/5TEq6joPGcaduC0DOuzWUpr49LQUWtLM4vkZkLV8rEmQsckYeM+0q+HDZDeg/9WnoPmSW9B+n5gCnSq/8E6dVvnHzRlyGqCTJ83CwZPmG+TJufJ9MXa4VQHJFFFWl5Z+BcueK+D+Wa+/vLM+/OkS/HFMmMJWFRvovWg0rYTAWkWafpl5G0VnKQFY2L7g5H62R53hJ565035Ic//KFssskmMmrUqEbtSr7zidFzzjlHttlmG6dli4uLnTuVN/nOB8vuu+8+tzbaOh+5j9h5sEy1FjxhGxBMXEtwjhAWoS3Tq1cv+clPfiJvvfWWWwhA5gYzx8RlnIaFhpWkGmqxiKSwMXFHC0S0nVdZK5/37C233tZFli1fLi+8+Jxsu80W0u3tl6S6Kl+S8TItaJVa3vRZR8rmJaBHWxDTu99faFNivrYkDAOZ0GZ17VY9py2r9ZRr16I5S1Vt5pVGZOHyMpkxe5mM1XbwkOETpe/AUdJnwBj5cuBkNaknyid9p8nbn02Sz0csl89GFchdLw6US+78SM6+7gu54MZhctODU+W5bsuk36gqmbcsJiVKXHq1Nak1P8lXjZTGG9M4laJtqhVgKiw1oXIZMXqI7Lbbbk7L3nTTTY6UVjbYOH6fffaRAw44QF555RVHSkDeQthLLrlEtt56a/dFQ56zcoBQ4SOA8Cg7Fu66whO2AbgZYY2ICJlD4mMyPf74446wPXr0aBwOMLJaZgVJ76b5JFWzxtUUU3ElCH8Jbe+GQ9KnV0/pfPUVMuurKfJm1xdlu202k/ffeUUzWAtAtFxJzzdiaTcpYVoQDXQNgh+0y7oJ1QPFsCWxnmCOrpdck9odm4i7rxJTod3s2tUNUl2XlJXaxp+3rEzGzlguXwybJX3HLpa3+yyUi25/T07r/Lacc91wOaPTBDnlsuFyfudhctsDE+WVt+fLwOHaVl5R69rf2swkuRXkT1TfoU2bpJJHW8apdL2sWLXQ7dPFbpV/+MMf3DeUaJtSQd94442yxRZbyEknneTWP1v5QDi/4oor5Kc//amrvCkLlBnKCffIe8LgyDXmNcfWgCdsA3AzsmH+knEcjZS0WU877TT5xS9+IUOHDnUZwjNIU6KScQmm+GAWU2LIOGpc9ZNx00xPxmXk8CHS5dYbZfKE0dKj+7uy4w5byrtvK2FrS7TNVaHeajR8xgWpFJqXDCn5Tc0J94O0+n6iVU1Dd85aiL6Wzi8ISbs9gmgwmKwckaiJ1gdIRFV0WFVyvWpgNzdaw6FtWqVh0IadvDQl1z/SU8696T0598ahcsY1o+XkywbIKZd+Lmdd8aFc3Pkduf2+j+XDTybKnHmFUlVNPpBG5A35WaOkhbD0S2t7ubZCPv30U/nBD37gmjpDhgxx2nL+/Ply4YUXyrbbbis33HCDW/SBKcxeXoMGDZKRI0e6Kao//vGP5bbbbpM+ffpI//79ZeLEiVJRUeHyH40MUQHlo7XgCduAIGEtwWnT4I7bnDlzZK+99nI18dSpUx2Z7TkyJEjWDGG1hBqXrATTi0PmoRXVXJ49a6p0fekZGT9ysAwZ0Ev22mMnp2lrqkslEWPIARMuU6O3JGsHfee6Cu/idS2Im5XkhPOMfPu+ElGZqArJTV10SaHpwuT8pDoktK2Z0MospnnBFMoa9VOi/jFIJy2JyJ3P9ZLOD30mF97RV865dZBces8wufHREdLlyUFy68Mfq6Z9Q556+QPp8UV/KausVo2tTRJtliQTdBDquVaWhriqdcbTsZo23HBDeeihh1zfBJ9lOeKII1xe891eQP4ff/zxjtw/+tGP3JFn0M60g9HGbIMLmQFlgjLCEe279vnUMjxhG4CbEZZEpnakVuUck6dv376yyy67SKdOnVwNDCmDzxlRjaxJepcorEhDeW9K2KKCFTKkfy8Z1LenTBgzVA7af2955YWnpaK0QNu8YS3cZg5/m6BNZe3QGInvL7yL17UgjXOG1e7lQ1+OlE1ISxK4ZOCoFVlU1W6dpnVVZZmUlReplEh5dZVUq8p1WlalSp8bO79GyfmRnHLN83LmTZ/IZfcNly4vTJPXvlgpQ6bXy9x8kUJtG9Nepr0d15fw2U890xCoNfkdRIJ3UxEnXV/EWWed5dqxbLAHMWnPonHpdKLziTJALzFDQNttt50TiIpJTC8ymnjnnXd2Wnns2LEufCOqdUyufT61DE/YBuAWJKwJBFy8eLEbq/vb3/7m2q/UwvjlGfw01ax2D142khZx5d6VUpW4hOsqZebkcfJht9dl8riRcsSf/yjPPPm4rM5nWIe4qDnuxluahNNU+DlrkmzPfVfJFu53FSWKW6Kn6ZYxtaEkAzeMtJaplLpjWo3ghISEbWHLVesWaMN4Rb2axcurZMLyelmg7dxVGlaepnO+hlukgtlMSO4jn+mQhp6ZmqEGt75b39cQB/KFLOAIofr16+fMWzYneP755903lNCi99xzjxufxSSG2BytjKB90aqMGNC/gbsJBMU6s46q1oQnbAOChCXB7UgmTZkyRa688ko3gB5cB2vPQFT8cuTaha//1LLLQlr9j/YtZlq0TuarWfzi04+qhh0ux/z9CHnysYdl1Yrl7v1Rbdgx2P+t57NJQ0FsUbI9910lW7hNJKXxTampmUawMvi9zrIIiP7LCAmkhEqz1MFt+qpSrF6KJZwokppoiVItLrWanvmhhJRrUCUaXqGGt1SDXq7XBfpEIaLhFet1hrAJqUvUSiTFR7QZyc0QFs6qVSwxfWWSfjS9psJdvXq1G76BgGxQgNaEtL17926suMlX8h3Li/4NysOWW24pL7zwghQUFLj8AuaXMsA5oFy4MtEKaNeENdJYogYTKJhIJCCE4oifpgmIOwlu4VmYZATtGXb7p9eQjgVqZHuPmTtc8wzhUqtS4wLMrtrazPS3mJKPdhoFNRaLSn2oTt0ismjhAnnu2adlwvhxcuMNN8jNao7RK0kN3TROzcl6BeLzLcGtQf4DOJKW1GoUeBMm/2vlp2pQf6HzwZrXoA9bUYSODkqmftRntKZU6rirxpfrwUWJbNAj+WKdi126dHHDNIzJ0jYlz6mcyV9AXjA8w5E8ZkP53Xff3WlkCB/Mh6Z50pp51G4Ja4UVIeERiAfowSVRjVz4gUy4k0GmDa1WtHAAYdC9P3DgQNfh8Mwzz8hLL73kriEw4QHat9apALlmzZol3bp1c23cY445Rs4880xH8gEDBjgC8z7awsQJIS6EgfZ+55133DtffPFFt9aW3kYrHMTH4teceHw/kHakL8LsNUxiOqBoozL2Sr7aMA9+OALykh7jnj17unyjHLQVco6wXFPQSWiIwbllDOYMwjmJzH0D/mmrsoUpBOKjV5g7ZMq8efOcacwzRnIjK8MAfIKyc+fOcsghhzjTil7DzTff3HVc0FHx5JNPus4M2kNkOsK7qQBoPzFMRAXDsAKmFtc26ZzKJfhbs4nH9wNpZ+nLtFP6J7p37+4qXjqZKBOUF/IaPxzJF0Dec8/I3FbIOcKaCcM15CKRceMeNSPnuCOcs1ID7Th48GD54IMP3AwXOhI+//xzmTBhguTl5TUS397DOwEZyhgca2R33HFH2XTTTZ05RY8jphW1NT2JDAexwgfik8HEiQqAWprnKSzEb/ny5XLVVVe5QsN4HoXDCktL4vH9QNoFLS2rzG36Ie7ctzznHvlnz+COP9zbCjlFWBKRQo4bIGHJBBLVEt0SGW3HGBwrMjB/0KYQFi1HGxKiQkgLk3AsXDKNcNCa1157rSNrcFwO4RzCbrDBBu4eE8wxsWnvQEJMKbQrJjHalfAIl4H4p556yu3KaIXDfmdz4vH9QfpZ3pLfVo4QS1/yIKgIrNLnHLK2ZR7kHGGtxiORKfBkgiUq99CoCxcudB1IbFfKDoh8pBlTmI82W9uX5wmTc7SdZSqCH97FcwceeKDTqJASrcpwgGlYyGpalx5IxvuYZE6blnYq7Vtb1gWJCZM4QVo+C0JFwT17b3Pi8f1B+lqFSfojRlDKDe6cUw4A6R0kKfnGdVshJzudSGA6DCCZZQAdPvT6DRs2TLp27eo0KhO3MUkxRS3h8c85YfCcZaK5mxv36SCyNisCUWm7MqaHKcw1PY8QFrdf/vKXrn3ExAs0K21m3onYJA1IzHQ4psxB7ODvbE48vj9IP6vUOSJW0ZPPQeDXyoGlO+WK67ZCzhGWI6QyAnLEvGUGCp/YePbZZ90kCNqsaE4LK6iNLVM4WpgcaXea1sM/vcGYv2hPCMm5aVabroabEXqzzTZzXw2gzWoL4HmHhUc8cGdIgbY08Q7+zubE4/vD0o88MJhb0zTmaCS2cmH32grtmrAkWFBITBtusfsrVqxwPb2YvhCB1RX0zlIzQmz8cERjcm7gecwgzCU0td0zd66ZyhZst0JIBt05h8AQF2GAHcKifWnH0rPMzBnCNc1KAQCEzZxWeqlp5+LOO7MJz3FcE5rzY+F0VPDbKSvAKmJgZKQ8BcuFpRVHyg9WnOVbW6FVCGsZvyaxBOA8iGBtFUycYGLY8/YsJKPAU8BxM/9kgIWBhmKIhrFR2oVs82HvX1chg2+++Wb5+c9/3qhBacdCWsxgI2tQ6Jw6++yzXaVBxxbtVyOt1dxoWoYX7rrrLtchZtMgAe+1dOJ38hznBotbEPi39lcQpB8WBffautB5fH+0GWENnFM4KShWWOw+hStIWAolBKNwUTjNZLUwTaxQUutxjR/IyVTC888/35mhtBchh2nfdRXeSacTU9nQsnQuQVZIi4al8wkti4lsHVJ0ULGOkrYve0P97ne/k3PPPdd9SYAZVWhUam3a2Y899pgb3mFZHyDeZpID4mAVGL8LMbMeCVZclj5NtYWJR/tBm2pYiGRmqEmQjBRAK1CAc3uGwsg5BQ//dm3AL4WUjiU6lCDq9ddf74iwatUqFwZxwF/TeH0fAfQqo7lZxQNpETQpR8jLjBlz48vt7733nutwYsiGgXmIiQXA3kHsdczeQSzR4siHo9lO1SZVEG/Sh9/MuZGSuOBm7kFp6o5fSGvktfBIG8491n+0CWEpLBQKKxi4GSgwFD6r/RHOrUBSuBD8mZah/UeHEUcIQM8qkx2YUYSZevfdd7veWCYm0F7kGTQX4YKm8fs+Yr3QdGYxO4nJESyzQtNae5VzyMrKDrSxje2apud3YRZDfNbYMv2RZXxMUTzllFMcaenYYt4qv4sdL5hVhX/CsDQjTCoxa28b+Ygn97m2tOfaSGy/hXPEY/1HmxHWCosJGtK0JNdW4+Ofwsx4KQV88uTJrpDScUQPLzOG0JyYu6xbZAiEczQdHUsM1bCImKEaCI0JaeTnHKI1jd/3EchGvAmPGVGQCc1oayUZ7mFyOGsqGaLht0Aafq/9Vs7tSJjcJ1w6xZi/THuX38g8V+Tf//63mwKJSX3LLbc4s/n99993WpieZ5oERmKOkNjiaekMuGfpb2nu0T7QZiYxhcUKDtcUJAQiUdDozWVCA5/AgKAUWGb80L6jkLJD3a233uom1HN84IEH3EoJOnDopKHQ0pFDYYeYRlDICqkovGgfpGncvo8A4k+B511UEMxcwhx/4okn3BFzl/FW3m1k5MjzpAPn5m4EIyzu8XvuvfdeNxRF+xuznsXUbARHm5wKgrShcwoiP/jggy5NcGfGFpUIz/D7eR9HwgX2TosP+WK/yWP9RpsSlsJIITHgDsHGjBkjH330kWvjUcjRHBRWhjYgLUcKKh1JEIDOGbQnGoKCbuFSKLmmEEIkqyQgAqS1Ato0bt9HAO/jPbyTyoH4WOHHjXPeR/yMJPZ+yGPa1eJNHPHLc2ypisXAMBAVGWEDC5tJFcyBph0MQam8WHBNhYb5DImtQvvwww9dBTBz5kwpLCx0z9tv4F0WD4/1H23ahjViUThoV6JVKXCmMWjn0R7FDVMYM5LCyjQ9tIVpKsKzAs8578AdTW3EgQRGEPxaHHBrGr/vI4TJEfAum6xv94zM/Ga0Om4WD/xwtN8RJKM9zxRG2uK0zUkDwrF7EM4qBIR0MTcIOXr0aDfxgmYCvdLsDEjHFhUh86axSEhnpkfSSQf5ia/H+o82IawVXECBo3CwcgWzFzMOc47pgmhQJtRDVgosHTHM8WXer607pFBCDLQRRICEvINwTYviD+E9COfEoWm81kWIB+/kPAiucYdIxMXAdTAeHIk7R+LIM1aZQWAsCtrmb7/9tjO3uUcY+OeIP+IQ/F1GWu4DwoeMpDXtaNb20v6lQ4veaM7pqMPsppKkk462MKS3SoD3NEXT32wIunNOPJCm/oNuFleAm7k3fcYjgzYziU0oeBAObciytMMPP1yOO+44Oe+889wMHwoWQucRJMbcQ2NATgo8QyKQGo1LOKZBCTtYiK1QmHDNfe7ZfYt7Nr8mXGeD+W0Ke94KuvkLioF4GFn5LRCF+/Qc08HGUA87zOOOPwPhk4789rUBYQaJTW8yw0qETSce27eyXxW7AtJfQC81c6zRwPTCs8IIC4I4EA7xtbSx38rRzu195JeR3t6N4GYVbbCCCboHw+cYRNPrjoQ2ISwZ1rRwUWjoQaWQYLaxTI0OFEjK2Cn76fAZBGp6Mo3hGZbD0d6lIKF1rM1I+BRgG6+091qhsYJDHCC+zTAyf4DnuE84hMt9CqgVOGD+kWDhMhAG70LTY/JzTRzwS7jc4xmLI78NMtg9C5e9b+lYo01K5xFxIRyAH+ITjNeawDP8lqbxBcSFsCAkbWJ6ncmPgw8+2C0JPPLIIx2JqUBsRZOlH+nEbyXdCZ+wuSaunNu7iCe/z9wB70WIE+6cEwb+DLjznuDv5NzSsCOizdqwJHQwkclsTD5qd7Qr0wfRKLS3MAPpGUULk4G0ZZn1A5EpwEzXI9MIg04r/EJgNBGFCbJAguYylTgRH8LHLwUWt+bAPd5HmBQgtGEwbPt9LYUB8MPvIQwKNvG3ZzjijilMOkAa2pnEMQj8EY4R+LvCfgu/OfgbLFzcCJv7vJtOPqwdhtIYF+ZjYGxQxpaeVK5YO/gNgnAgMWlrBCR80o+KgfBZ5EBlxfAd16QFeWcVNGHiP/g7cWsa746GNjWJSWwzq7imQ4VJB4cddpgrpPRqstMDbSnaVPQUU3Ax0WysEbJCUvww/AO5mSRBQadzikLPO3gX70EoNBQICgP3ceM+5xRKwqTzhWETKgQ0O0dMcRa0M6cX85EeW+JMhw6dZLS/sQro3EEjMsxC7yz38EMbfO7cuS6+vJ+CZmnBOfGiAHMfvxADIlx88cWuxxz3YOG05zh+X0AmCMu7TUgL3AHhm8bnnHuQig5CSEZ7mL4GxoX5SNRf/vIXp41ZCME18aYPgt9FmBZX+92kPWnBkft0rDE9k84w8gA33st9e8biRFw478hoU8KSGSS8aRaGGSAbpjGEhRCMpdLhRI8mGpilcMz+wRyGsNzDPEMjM2mCHmZMNcKiUJGhCAUOQiKc827EyAp50cyQnoqBjxtBFDQJhQji0bPKPa5p67GzHuREICr3GXqBoMSXZ7hHZ86ll17qCjCmPs/yO6iQKJgQE4HUuNF2h+xMkiA8fiNNANLKCijpxTnHIJpeZwN+jJScW1gmXHMPIiOkkb0XcG4E40j+MawGgWkLo4Wxfhh7Zosb+iZo6tCxRUXGkB35B4n5TeQJIF8wt5nayUbclAN6sIO7EPJuLBqesTgRBvHoiGjTNiwJjlihIBPoPII0kBDthcY0rUVbjkJBjQ2x0XRkKOSARDY3F9MLApKRaFfCt8KF8E6LB6YoPc5MA4RE1vHFFEC0PR9rxtRjPJj2HIWNdzLTivczOQJTlXFStDwmIeEx9IKGhmz44zl6wdlBgokUaGPizBI/CjFjpaaRmRRCYaejh/DMLORoFglxtwIbRDa3bLA0ABy5JlzSCjJbmgX94UaaIviBOJzbffzjhpWCFmahAmmAhYJFRDOGcXR+K00dKkQITSVF3mIRMTuMdcNM4dx+++2dtqaS4z7h8S7LR4Mn7DqCRG1JKARWMMw/iY47mc7QAwUeM5RBfgowmgZi0MmEFkVrcQ8/1OgUDDKUZ6nlIQraGYJjSlKbQ2TMXQhlW7KgxQnbChET7CEUlQYFiAqAMOiNpu1MWNY25l0WLpWNFWQTyAXJ8IOGJAzMPOJH2EyZxMRm8TwFkkKN2U2FRGcOhd6IQRsQIhhhg0QKIptbNlheIIRlQvo3JarBCM0RP2Y+B8nNtZnPZjlxn/QhzchXKjc6EakEMaWpcKmUqbDYWjS40J9VTjvttJMbOWAYinwmPYDFj3c3jWtHQZuZxGQ6hZlzQCZYYbCCwH3IQg1NW9ZMRjKX7UI5p4DTm4kmshUvEA4C0talUDAUxNgiNTzXaC80HH4wwZgNxPgj77BJGcSHuDSNN2IF2wqwxRv3phL0Z89zDvEoxLwHLQ8ZISVu/H7zw/MUfO6THsFwgMUH+S6wMLKFFYxzMNymfu2IfxOe4QisEiYsy1Pu8Qxu/C4qPUhIBYn1wdcAbcFEcE8sNrDbd999nVamfwLy23s6MtqMsCS21cCAzCWzETLXCq35QzNBRkxQzGSIxjAHpGRGFFPuICNtQdqAEBJNzCQM2oyQkvYoR8xQ7lNj8wyaDU0KWSx+FhcKnLlx3rRAm0axuJp/wBE38xcMKyjmx8JASI+mlRjCvSB43uK1rrCwmsYnG/AbBNeWJhwNTf0Be4/d45zKiQkxv/rVr9wSRNYMQ1wEwrKWmAUUe+yxh+vfYGwei4X3rS14h6VVMF5cE+emv5Wwg3G057KF8b9CqxB2bcCPbUkosBCVgm6kIJFwx6Sl4wmS0r6EsLQvaVcGZ+jgj2s0J21eiI4ZTZsSUxrtjVYjo9ZVsv2GppLtuaZCwWlJSINcAulC3nJEc/LB5EMPPdRN3KAf4cQTT3S7S9Jph0VknXvkJ1YV5WFtgSVDGlMRUqaC+RIsZwbCNnIGKzDygaPlhYXzv8B6RVgzCUmgoHbhSPuOtqS1J2knYjIasYPgecLjnmUMYdi7OF9XCca9Ocn23HcVwsklkFdYNoCxc9q2tOfpf6C9S78E9/Fn6Wjk4Rz3ta3I8MczmOGESX8GlTsrwihHhEnTI+gXoRxa2cG9KSxv/hdYbwhL4pCAgMwgwRDuAY7ct4RtCguHZ4OZbbDroJ91kWB4zUm254KS7Zmmkovgt9sRMmFZcW5lAKHCtQrLCILgjpWE3zWBCt0IR/hYZWzTgzAiYeUNoI3xwzssTrwbt6b5QJgWt7bGekNYq9EMuBlBSRzuWc0XJC3H4H1qUoSM5XkS3DICsQxYX6Sjgd9s+cw5+WHnkMTIa27BNGp6vTawZxBI+utf/1p+//vfuw7JILjPuyEuZYc4EE/KEmXO4tQUbU3c9UrDIpy3JrKFF3zv/1o6GvjNZj01ze9gmnCEDFbpUklDHkiF+9qCphQCERlSoueZ9jLtZwuH8GliMQ5/0EEHuY5NhvSMjCYWnyD4Hd8lPuuK9YawJlazkTBcN4X5I5HIRNPAPGcZazA/Fg7XrZW4Fo+WxCM7LH3IL7tGqwUtI6vAg/n1fdLVygXCiMKee+7pSEmvM2UD89r88YlQ9pVmNIGZXE2BHyoMSGrxIH7fNU7rgvWGsAYShYwi44y4SJB4INvzPBscT+Xa7oGg33WFhdWSeDSPpnnDNYXf3JumI+7kK+XCxqfXBMKzJhJEY9hvv/32c4sXGKcnbMLhHmEy5ss0SWbAMc2V8kd54p7FhTgECWvHtsJ6Q1gSl8QgY5oT7jdXo3Gfe2QA5wD/JLpd85ydryuCcW9O1gbZngtKroK8MXCO8Hub5iFuZj5ny+OWwLOEa88zy23//fd3bVjO6SlmbJ95zyxeYNM8drtkr2nc/vWvf7khJSbqmCYmzOC7Cb+1ytTaoM0Iuybwo5GWCqn5yQaea/osfoMEz+bH43+DYD5avpI32fIMUuD2fWFhMpa7zz77uG1nmWnFuD37RTOPGWHCBhM4bOIGM68YJ2ZqZTYTGaxt5dFaWG8I6+HR2rAKAEB6CIv2ZDkniz8Yz7e562haiMzsqn/84x9uZRYz6BgKgtiY1cAqEEOwcmkLeMJ65CwgKwKh0IQQll7iQw45xM1+w1SmTcyRdiwbtvOtJJZL2j7SDBVyjzAQTOumbVg7bwt4wnrkLIJkgmSMw+69995u4gRLJiEkmhM/EJH1uDvssINb6slqq6ZEhPwQmOcMHbYN6+HR2oBYCGYrWpK56AcccIDrJYawRjSOjNOiWekpZsgHwlrb2bQ0x6A5DCD6urSvvys8YT1yFkyGQNCKTJ6go4k10Gw7xNpozGGDkQ5imtaEjBCdo5Eb4Me0r2/Deni0IoLkwixGc9rEf2D3WARgGpTOKMZfmwPP4q8tiWrwhPXIWaD9mPSAloRkZtqaQGAbrgmSD7/WuWTEDoJwghq3LeEJ65HTMJJCPAgYbIPiHmx/0gFlJq5pUa45R/5XJA3CE9ajQwASGnmbQ7A9yrHpuV3/L+EJ6+HRjuAJ6+HRjuAJ6+HRjuAJ6+HRjuAJ6+HRjuAJ6+HRjuAJ6+HRjuAJ6+HRjuAJ6+HRjuAJ6+HRjuAJ6+HRjuAJ6+HRjuAJ6+HRjuAJ6+HRjuAJ6+HRjuAJ6+HRjuAJ6+HRjuAJ6+HRjuAJ6+HRjuAJ6+HRjuAJ6+HRjuAJ6+HRjuAJ6+HRjuAJ6+HRjuAJ6+HRjuAJ6+HRjuAJ6+HRjuAJ6+HRjuAJ6+HRjuAJ6+HRjuAJ6+HRjuAJ6+HRjuAJ6+HRjuAJ6+HRjuAJ6+HRjuAJ6+HRjuAJ6+HRjuAJ6+HRjuAJ6+HRjuAJ6+HRjuAJ6+HRjuAJ6+HRjuAJ6+HRjuAJ6+HRjuAJ6+HRjuAJ6+HRjuAJ6+HRbiDy/6eq+P1unPOCAAAAAElFTkSuQmCC;" vertex="1" parent="1">
          <mxGeometry x="180" y="184.85" width="256" height="309.15" as="geometry" />
        </mxCell>
      </root>
    </mxGraphModel>
  </diagram>
</mxfile>
